<mxfile host="app.diagrams.net" agent="Mozilla/5.0 (Windows NT 10.0; Win64; x64) AppleWebKit/537.36 (KHTML, like Gecko) Chrome/129.0.0.0 Safari/537.36 Edg/129.0.0.0" version="24.7.17">
  <diagram id="Q1OssLHk5_guVeIHt4D1" name="Page-3">
    <mxGraphModel dx="2052" dy="1002" grid="1" gridSize="10" guides="1" tooltips="1" connect="1" arrows="1" fold="1" page="1" pageScale="1" pageWidth="827" pageHeight="1169" math="0" shadow="0">
      <root>
        <mxCell id="0" />
        <mxCell id="1" parent="0" />
        <mxCell id="z2_gmYMCOCfwrX77VKX7-1" value="Blakely x 6 - 7" style="rounded=0;whiteSpace=wrap;html=1;labelPosition=center;verticalLabelPosition=top;align=center;verticalAlign=bottom;fontSize=32;fillColor=none;movable=1;resizable=1;rotatable=1;deletable=1;editable=1;locked=0;connectable=1;" parent="1" vertex="1">
          <mxGeometry x="530" y="2010" width="670" height="450" as="geometry" />
        </mxCell>
        <mxCell id="z2_gmYMCOCfwrX77VKX7-2" value="" style="endArrow=classic;html=1;rounded=0;entryX=0.75;entryY=1;entryDx=0;entryDy=0;" parent="1" target="z2_gmYMCOCfwrX77VKX7-6" edge="1">
          <mxGeometry relative="1" as="geometry">
            <mxPoint x="345" y="505" as="sourcePoint" />
            <mxPoint x="375" y="555" as="targetPoint" />
          </mxGeometry>
        </mxCell>
        <mxCell id="z2_gmYMCOCfwrX77VKX7-3" value="/&lt;sup&gt;256&lt;/sup&gt;" style="edgeLabel;resizable=0;html=1;;align=center;verticalAlign=middle;" parent="z2_gmYMCOCfwrX77VKX7-2" connectable="0" vertex="1">
          <mxGeometry relative="1" as="geometry" />
        </mxCell>
        <mxCell id="z2_gmYMCOCfwrX77VKX7-4" value="key_e" style="edgeLabel;resizable=0;html=1;;align=left;verticalAlign=bottom;" parent="z2_gmYMCOCfwrX77VKX7-2" connectable="0" vertex="1">
          <mxGeometry x="-1" relative="1" as="geometry" />
        </mxCell>
        <mxCell id="z2_gmYMCOCfwrX77VKX7-5" style="edgeStyle=orthogonalEdgeStyle;rounded=0;orthogonalLoop=1;jettySize=auto;html=1;exitX=0.75;exitY=0;exitDx=0;exitDy=0;entryX=0;entryY=0.5;entryDx=0;entryDy=0;" parent="1" source="z2_gmYMCOCfwrX77VKX7-6" target="z2_gmYMCOCfwrX77VKX7-92" edge="1">
          <mxGeometry relative="1" as="geometry" />
        </mxCell>
        <mxCell id="z2_gmYMCOCfwrX77VKX7-6" value="" style="shape=trapezoid;perimeter=trapezoidPerimeter;whiteSpace=wrap;html=1;fixedSize=1;rotation=-180;" parent="1" vertex="1">
          <mxGeometry x="315" y="555" width="120" height="60" as="geometry" />
        </mxCell>
        <mxCell id="z2_gmYMCOCfwrX77VKX7-7" value="0" style="text;strokeColor=none;fillColor=none;align=left;verticalAlign=middle;spacingLeft=4;spacingRight=4;overflow=hidden;points=[[0,0.5],[1,0.5]];portConstraint=eastwest;rotatable=0;whiteSpace=wrap;html=1;" parent="1" vertex="1">
          <mxGeometry x="335" y="555" width="20" height="20" as="geometry" />
        </mxCell>
        <mxCell id="z2_gmYMCOCfwrX77VKX7-8" style="edgeStyle=orthogonalEdgeStyle;rounded=0;orthogonalLoop=1;jettySize=auto;html=1;entryX=0.25;entryY=1;entryDx=0;entryDy=0;" parent="1" source="z2_gmYMCOCfwrX77VKX7-9" target="z2_gmYMCOCfwrX77VKX7-19" edge="1">
          <mxGeometry relative="1" as="geometry">
            <mxPoint x="510" y="515" as="targetPoint" />
            <Array as="points">
              <mxPoint x="510" y="535" />
              <mxPoint x="565" y="535" />
              <mxPoint x="565" y="732" />
            </Array>
          </mxGeometry>
        </mxCell>
        <mxCell id="z2_gmYMCOCfwrX77VKX7-9" value="Shift Right&amp;nbsp;" style="ellipse;whiteSpace=wrap;html=1;aspect=fixed;" parent="1" vertex="1">
          <mxGeometry x="485" y="565" width="50" height="50" as="geometry" />
        </mxCell>
        <mxCell id="z2_gmYMCOCfwrX77VKX7-10" style="edgeStyle=orthogonalEdgeStyle;rounded=0;orthogonalLoop=1;jettySize=auto;html=1;entryX=1;entryY=1;entryDx=0;entryDy=0;" parent="1" source="z2_gmYMCOCfwrX77VKX7-11" target="z2_gmYMCOCfwrX77VKX7-9" edge="1">
          <mxGeometry relative="1" as="geometry">
            <Array as="points">
              <mxPoint x="528" y="635" />
              <mxPoint x="528" y="635" />
            </Array>
          </mxGeometry>
        </mxCell>
        <mxCell id="z2_gmYMCOCfwrX77VKX7-11" value="3" style="whiteSpace=wrap;html=1;aspect=fixed;" parent="1" vertex="1">
          <mxGeometry x="515" y="655" width="20" height="20" as="geometry" />
        </mxCell>
        <mxCell id="z2_gmYMCOCfwrX77VKX7-12" value="1" style="text;strokeColor=none;fillColor=none;align=left;verticalAlign=middle;spacingLeft=4;spacingRight=4;overflow=hidden;points=[[0,0.5],[1,0.5]];portConstraint=eastwest;rotatable=0;whiteSpace=wrap;html=1;" parent="1" vertex="1">
          <mxGeometry x="395" y="555" width="20" height="20" as="geometry" />
        </mxCell>
        <mxCell id="z2_gmYMCOCfwrX77VKX7-13" value="" style="endArrow=classic;html=1;rounded=0;" parent="1" target="z2_gmYMCOCfwrX77VKX7-14" edge="1">
          <mxGeometry width="50" height="50" relative="1" as="geometry">
            <mxPoint x="455" y="745" as="sourcePoint" />
            <mxPoint x="455" y="775" as="targetPoint" />
          </mxGeometry>
        </mxCell>
        <mxCell id="z2_gmYMCOCfwrX77VKX7-14" value="= 0 ?" style="whiteSpace=wrap;html=1;aspect=fixed;" parent="1" vertex="1">
          <mxGeometry x="435" y="765" width="40" height="40" as="geometry" />
        </mxCell>
        <mxCell id="z2_gmYMCOCfwrX77VKX7-15" value="" style="endArrow=classic;html=1;rounded=0;entryX=1;entryY=0.5;entryDx=0;entryDy=0;" parent="1" target="z2_gmYMCOCfwrX77VKX7-19" edge="1">
          <mxGeometry width="50" height="50" relative="1" as="geometry">
            <mxPoint x="455" y="805" as="sourcePoint" />
            <mxPoint x="455" y="855" as="targetPoint" />
            <Array as="points">
              <mxPoint x="455" y="845" />
              <mxPoint x="553" y="845" />
              <mxPoint x="620" y="845" />
            </Array>
          </mxGeometry>
        </mxCell>
        <mxCell id="z2_gmYMCOCfwrX77VKX7-16" value="e_is_0" style="edgeLabel;html=1;align=center;verticalAlign=middle;resizable=0;points=[];" parent="1" vertex="1" connectable="0">
          <mxGeometry x="485" y="835.0033333333333" as="geometry">
            <mxPoint x="-4" y="1" as="offset" />
          </mxGeometry>
        </mxCell>
        <mxCell id="z2_gmYMCOCfwrX77VKX7-17" value="F =&amp;gt; e_register&lt;div&gt;86 lines of 3 bits&lt;/div&gt;" style="rounded=0;whiteSpace=wrap;html=1;" parent="1" vertex="1">
          <mxGeometry x="285" y="885" width="120" height="60" as="geometry" />
        </mxCell>
        <mxCell id="z2_gmYMCOCfwrX77VKX7-18" style="edgeStyle=orthogonalEdgeStyle;rounded=0;orthogonalLoop=1;jettySize=auto;html=1;" parent="1" source="z2_gmYMCOCfwrX77VKX7-19" target="z2_gmYMCOCfwrX77VKX7-12" edge="1">
          <mxGeometry relative="1" as="geometry">
            <Array as="points">
              <mxPoint x="685" y="760" />
              <mxPoint x="685" y="505" />
              <mxPoint x="405" y="505" />
            </Array>
          </mxGeometry>
        </mxCell>
        <mxCell id="z2_gmYMCOCfwrX77VKX7-19" value="MUX" style="shape=trapezoid;perimeter=trapezoidPerimeter;whiteSpace=wrap;html=1;fixedSize=1;rotation=90;" parent="1" vertex="1">
          <mxGeometry x="565" y="745" width="110" height="30" as="geometry" />
        </mxCell>
        <mxCell id="z2_gmYMCOCfwrX77VKX7-20" value="" style="endArrow=classic;html=1;rounded=0;entryX=0;entryY=1;entryDx=0;entryDy=0;" parent="1" target="z2_gmYMCOCfwrX77VKX7-9" edge="1">
          <mxGeometry width="50" height="50" relative="1" as="geometry">
            <mxPoint x="495" y="745" as="sourcePoint" />
            <mxPoint x="455" y="665" as="targetPoint" />
          </mxGeometry>
        </mxCell>
        <mxCell id="z2_gmYMCOCfwrX77VKX7-21" value="" style="endArrow=classic;html=1;rounded=0;exitX=0.25;exitY=0;exitDx=0;exitDy=0;entryX=0.75;entryY=1;entryDx=0;entryDy=0;" parent="1" source="z2_gmYMCOCfwrX77VKX7-6" target="z2_gmYMCOCfwrX77VKX7-19" edge="1">
          <mxGeometry width="50" height="50" relative="1" as="geometry">
            <mxPoint x="405" y="725" as="sourcePoint" />
            <mxPoint x="455" y="745" as="targetPoint" />
            <Array as="points">
              <mxPoint x="405" y="745" />
              <mxPoint x="455" y="745" />
              <mxPoint x="495" y="745" />
              <mxPoint x="495" y="788" />
            </Array>
          </mxGeometry>
        </mxCell>
        <mxCell id="z2_gmYMCOCfwrX77VKX7-22" value="e (/256)" style="edgeLabel;html=1;align=center;verticalAlign=middle;resizable=0;points=[];" parent="z2_gmYMCOCfwrX77VKX7-21" vertex="1" connectable="0">
          <mxGeometry x="-0.5778" y="1" relative="1" as="geometry">
            <mxPoint x="-1" as="offset" />
          </mxGeometry>
        </mxCell>
        <mxCell id="z2_gmYMCOCfwrX77VKX7-23" value="MUX" style="text;html=1;align=center;verticalAlign=middle;whiteSpace=wrap;rounded=0;" parent="1" vertex="1">
          <mxGeometry x="345" y="575" width="60" height="30" as="geometry" />
        </mxCell>
        <mxCell id="z2_gmYMCOCfwrX77VKX7-24" value="" style="endArrow=classic;html=1;rounded=0;entryX=1;entryY=0.25;entryDx=0;entryDy=0;" parent="1" target="z2_gmYMCOCfwrX77VKX7-6" edge="1">
          <mxGeometry width="50" height="50" relative="1" as="geometry">
            <mxPoint x="265" y="597" as="sourcePoint" />
            <mxPoint x="325" y="589.7" as="targetPoint" />
          </mxGeometry>
        </mxCell>
        <mxCell id="z2_gmYMCOCfwrX77VKX7-25" value="1" style="text;html=1;align=center;verticalAlign=middle;whiteSpace=wrap;rounded=0;" parent="1" vertex="1">
          <mxGeometry x="585" y="770" width="60" height="30" as="geometry" />
        </mxCell>
        <mxCell id="z2_gmYMCOCfwrX77VKX7-26" value="0" style="text;strokeColor=none;fillColor=none;align=left;verticalAlign=middle;spacingLeft=4;spacingRight=4;overflow=hidden;points=[[0,0.5],[1,0.5]];portConstraint=eastwest;rotatable=0;whiteSpace=wrap;html=1;" parent="1" vertex="1">
          <mxGeometry x="605" y="725" width="20" height="20" as="geometry" />
        </mxCell>
        <mxCell id="z2_gmYMCOCfwrX77VKX7-27" value="" style="swimlane;startSize=0;movable=0;resizable=0;rotatable=0;deletable=0;editable=0;locked=1;connectable=0;" parent="1" vertex="1">
          <mxGeometry x="380" y="1150" width="1210" height="680" as="geometry" />
        </mxCell>
        <mxCell id="z2_gmYMCOCfwrX77VKX7-28" style="edgeStyle=orthogonalEdgeStyle;rounded=0;orthogonalLoop=1;jettySize=auto;html=1;exitX=1;exitY=0.5;exitDx=0;exitDy=0;entryX=0;entryY=0.5;entryDx=0;entryDy=0;" parent="1" source="z2_gmYMCOCfwrX77VKX7-29" target="z2_gmYMCOCfwrX77VKX7-139" edge="1">
          <mxGeometry relative="1" as="geometry" />
        </mxCell>
        <mxCell id="z2_gmYMCOCfwrX77VKX7-29" value="F" style="whiteSpace=wrap;html=1;aspect=fixed;" parent="1" vertex="1">
          <mxGeometry x="600" y="1250" width="80" height="80" as="geometry" />
        </mxCell>
        <mxCell id="z2_gmYMCOCfwrX77VKX7-30" style="edgeStyle=orthogonalEdgeStyle;rounded=0;orthogonalLoop=1;jettySize=auto;html=1;exitX=1;exitY=0.5;exitDx=0;exitDy=0;entryX=1;entryY=0.5;entryDx=0;entryDy=0;" parent="1" source="z2_gmYMCOCfwrX77VKX7-31" target="z2_gmYMCOCfwrX77VKX7-140" edge="1">
          <mxGeometry relative="1" as="geometry" />
        </mxCell>
        <mxCell id="z2_gmYMCOCfwrX77VKX7-31" value="M" style="whiteSpace=wrap;html=1;aspect=fixed;" parent="1" vertex="1">
          <mxGeometry x="860" y="1250" width="80" height="80" as="geometry" />
        </mxCell>
        <mxCell id="z2_gmYMCOCfwrX77VKX7-32" style="edgeStyle=orthogonalEdgeStyle;rounded=0;orthogonalLoop=1;jettySize=auto;html=1;exitX=1;exitY=0.75;exitDx=0;exitDy=0;entryX=0;entryY=0.75;entryDx=0;entryDy=0;" parent="1" source="z2_gmYMCOCfwrX77VKX7-34" target="z2_gmYMCOCfwrX77VKX7-29" edge="1">
          <mxGeometry relative="1" as="geometry">
            <Array as="points">
              <mxPoint x="550" y="1308" />
              <mxPoint x="550" y="1310" />
            </Array>
          </mxGeometry>
        </mxCell>
        <mxCell id="z2_gmYMCOCfwrX77VKX7-33" style="edgeStyle=orthogonalEdgeStyle;rounded=0;orthogonalLoop=1;jettySize=auto;html=1;exitX=0.5;exitY=0;exitDx=0;exitDy=0;entryX=0.5;entryY=0;entryDx=0;entryDy=0;" parent="1" target="z2_gmYMCOCfwrX77VKX7-34" edge="1">
          <mxGeometry relative="1" as="geometry">
            <mxPoint x="500.2222222222222" y="1200" as="sourcePoint" />
          </mxGeometry>
        </mxCell>
        <mxCell id="z2_gmYMCOCfwrX77VKX7-34" value="MUX" style="shape=step;perimeter=stepPerimeter;whiteSpace=wrap;html=1;fixedSize=1;" parent="1" vertex="1">
          <mxGeometry x="440" y="1265" width="120" height="60" as="geometry" />
        </mxCell>
        <mxCell id="z2_gmYMCOCfwrX77VKX7-35" style="edgeStyle=orthogonalEdgeStyle;rounded=0;orthogonalLoop=1;jettySize=auto;html=1;entryX=0;entryY=0.5;entryDx=0;entryDy=0;" parent="1" target="z2_gmYMCOCfwrX77VKX7-34" edge="1">
          <mxGeometry relative="1" as="geometry">
            <mxPoint x="420" y="1295" as="sourcePoint" />
          </mxGeometry>
        </mxCell>
        <mxCell id="z2_gmYMCOCfwrX77VKX7-36" style="edgeStyle=orthogonalEdgeStyle;rounded=0;orthogonalLoop=1;jettySize=auto;html=1;entryX=0.25;entryY=1;entryDx=0;entryDy=0;" parent="1" source="z2_gmYMCOCfwrX77VKX7-39" target="z2_gmYMCOCfwrX77VKX7-42" edge="1">
          <mxGeometry relative="1" as="geometry" />
        </mxCell>
        <mxCell id="z2_gmYMCOCfwrX77VKX7-37" style="edgeStyle=orthogonalEdgeStyle;rounded=0;orthogonalLoop=1;jettySize=auto;html=1;entryX=0.5;entryY=0;entryDx=0;entryDy=0;" parent="1" edge="1">
          <mxGeometry relative="1" as="geometry">
            <mxPoint x="544.83" y="1540" as="targetPoint" />
            <mxPoint x="544.83" y="1520" as="sourcePoint" />
          </mxGeometry>
        </mxCell>
        <mxCell id="z2_gmYMCOCfwrX77VKX7-38" value="RESET" style="edgeLabel;html=1;align=center;verticalAlign=middle;resizable=0;points=[];" parent="z2_gmYMCOCfwrX77VKX7-37" vertex="1" connectable="0">
          <mxGeometry x="-0.6388" relative="1" as="geometry">
            <mxPoint x="3" y="-15" as="offset" />
          </mxGeometry>
        </mxCell>
        <mxCell id="z2_gmYMCOCfwrX77VKX7-39" value="i" style="whiteSpace=wrap;html=1;aspect=fixed;" parent="1" vertex="1">
          <mxGeometry x="530" y="1540" width="30" height="30" as="geometry" />
        </mxCell>
        <mxCell id="z2_gmYMCOCfwrX77VKX7-40" value="" style="edgeStyle=orthogonalEdgeStyle;rounded=0;orthogonalLoop=1;jettySize=auto;html=1;" parent="1" source="z2_gmYMCOCfwrX77VKX7-42" target="z2_gmYMCOCfwrX77VKX7-45" edge="1">
          <mxGeometry relative="1" as="geometry" />
        </mxCell>
        <mxCell id="z2_gmYMCOCfwrX77VKX7-41" style="edgeStyle=orthogonalEdgeStyle;rounded=0;orthogonalLoop=1;jettySize=auto;html=1;entryX=0.75;entryY=1;entryDx=0;entryDy=0;" parent="1" source="z2_gmYMCOCfwrX77VKX7-53" target="z2_gmYMCOCfwrX77VKX7-42" edge="1">
          <mxGeometry relative="1" as="geometry" />
        </mxCell>
        <mxCell id="z2_gmYMCOCfwrX77VKX7-42" value="SUB" style="shape=trapezoid;perimeter=trapezoidPerimeter;whiteSpace=wrap;html=1;fixedSize=1;rotation=90;" parent="1" vertex="1">
          <mxGeometry x="612.5" y="1572.5" width="100" height="45" as="geometry" />
        </mxCell>
        <mxCell id="z2_gmYMCOCfwrX77VKX7-43" style="edgeStyle=orthogonalEdgeStyle;rounded=0;orthogonalLoop=1;jettySize=auto;html=1;exitX=1;exitY=0.5;exitDx=0;exitDy=0;entryX=0;entryY=0.25;entryDx=0;entryDy=0;" parent="1" source="z2_gmYMCOCfwrX77VKX7-39" target="z2_gmYMCOCfwrX77VKX7-45" edge="1">
          <mxGeometry relative="1" as="geometry">
            <Array as="points">
              <mxPoint x="600" y="1555" />
              <mxPoint x="600" y="1520" />
              <mxPoint x="730" y="1520" />
              <mxPoint x="730" y="1579" />
            </Array>
          </mxGeometry>
        </mxCell>
        <mxCell id="z2_gmYMCOCfwrX77VKX7-44" style="edgeStyle=orthogonalEdgeStyle;rounded=0;orthogonalLoop=1;jettySize=auto;html=1;exitX=1;exitY=0.5;exitDx=0;exitDy=0;entryX=0;entryY=0.5;entryDx=0;entryDy=0;" parent="1" source="z2_gmYMCOCfwrX77VKX7-45" target="z2_gmYMCOCfwrX77VKX7-39" edge="1">
          <mxGeometry relative="1" as="geometry">
            <Array as="points">
              <mxPoint x="910" y="1595" />
              <mxPoint x="910" y="1660" />
              <mxPoint x="510" y="1660" />
              <mxPoint x="510" y="1555" />
            </Array>
          </mxGeometry>
        </mxCell>
        <mxCell id="z2_gmYMCOCfwrX77VKX7-45" value="MUX" style="shape=step;perimeter=stepPerimeter;whiteSpace=wrap;html=1;fixedSize=1;" parent="1" vertex="1">
          <mxGeometry x="782.5" y="1555" width="120" height="80" as="geometry" />
        </mxCell>
        <mxCell id="z2_gmYMCOCfwrX77VKX7-46" value="" style="endArrow=classic;html=1;rounded=0;entryX=0.5;entryY=0;entryDx=0;entryDy=0;" parent="1" target="z2_gmYMCOCfwrX77VKX7-45" edge="1">
          <mxGeometry width="50" height="50" relative="1" as="geometry">
            <mxPoint x="843" y="1490" as="sourcePoint" />
            <mxPoint x="920" y="1430" as="targetPoint" />
          </mxGeometry>
        </mxCell>
        <mxCell id="z2_gmYMCOCfwrX77VKX7-47" value="out_for_loop" style="edgeLabel;html=1;align=center;verticalAlign=middle;resizable=0;points=[];" parent="z2_gmYMCOCfwrX77VKX7-46" vertex="1" connectable="0">
          <mxGeometry x="0.4628" y="1" relative="1" as="geometry">
            <mxPoint as="offset" />
          </mxGeometry>
        </mxCell>
        <mxCell id="z2_gmYMCOCfwrX77VKX7-48" value="" style="endArrow=classic;html=1;rounded=0;entryX=0;entryY=0.75;entryDx=0;entryDy=0;" parent="1" target="z2_gmYMCOCfwrX77VKX7-34" edge="1">
          <mxGeometry width="50" height="50" relative="1" as="geometry">
            <mxPoint x="600" y="1520" as="sourcePoint" />
            <mxPoint x="920" y="1440" as="targetPoint" />
            <Array as="points">
              <mxPoint x="600" y="1470" />
              <mxPoint x="500" y="1470" />
              <mxPoint x="420" y="1470" />
              <mxPoint x="420" y="1400" />
              <mxPoint x="420" y="1330" />
              <mxPoint x="420" y="1307" />
            </Array>
          </mxGeometry>
        </mxCell>
        <mxCell id="z2_gmYMCOCfwrX77VKX7-49" style="edgeStyle=orthogonalEdgeStyle;rounded=0;orthogonalLoop=1;jettySize=auto;html=1;exitX=0.5;exitY=0;exitDx=0;exitDy=0;entryX=0;entryY=0.25;entryDx=0;entryDy=0;" parent="1" source="z2_gmYMCOCfwrX77VKX7-50" target="z2_gmYMCOCfwrX77VKX7-56" edge="1">
          <mxGeometry relative="1" as="geometry" />
        </mxCell>
        <mxCell id="z2_gmYMCOCfwrX77VKX7-50" value="MOD" style="shape=trapezoid;perimeter=trapezoidPerimeter;whiteSpace=wrap;html=1;fixedSize=1;rotation=90;" parent="1" vertex="1">
          <mxGeometry x="1080" y="1250" width="120" height="60" as="geometry" />
        </mxCell>
        <mxCell id="z2_gmYMCOCfwrX77VKX7-51" style="edgeStyle=orthogonalEdgeStyle;rounded=0;orthogonalLoop=1;jettySize=auto;html=1;exitX=1;exitY=0.5;exitDx=0;exitDy=0;entryX=0.75;entryY=1;entryDx=0;entryDy=0;" parent="1" source="z2_gmYMCOCfwrX77VKX7-136" target="z2_gmYMCOCfwrX77VKX7-50" edge="1">
          <mxGeometry relative="1" as="geometry">
            <mxPoint x="1060" y="1350" as="sourcePoint" />
            <Array as="points">
              <mxPoint x="1090" y="1310" />
            </Array>
          </mxGeometry>
        </mxCell>
        <mxCell id="z2_gmYMCOCfwrX77VKX7-52" value="85" style="text;html=1;align=center;verticalAlign=middle;whiteSpace=wrap;rounded=0;" parent="1" vertex="1">
          <mxGeometry x="380" y="1280" width="60" height="30" as="geometry" />
        </mxCell>
        <mxCell id="z2_gmYMCOCfwrX77VKX7-53" value="1" style="text;html=1;align=center;verticalAlign=middle;whiteSpace=wrap;rounded=0;" parent="1" vertex="1">
          <mxGeometry x="510" y="1605" width="60" height="30" as="geometry" />
        </mxCell>
        <mxCell id="z2_gmYMCOCfwrX77VKX7-54" style="edgeStyle=orthogonalEdgeStyle;rounded=0;orthogonalLoop=1;jettySize=auto;html=1;exitX=0.5;exitY=0;exitDx=0;exitDy=0;entryX=0.5;entryY=0;entryDx=0;entryDy=0;" parent="1" target="z2_gmYMCOCfwrX77VKX7-56" edge="1">
          <mxGeometry relative="1" as="geometry">
            <mxPoint x="1210.2" y="1200" as="sourcePoint" />
          </mxGeometry>
        </mxCell>
        <mxCell id="z2_gmYMCOCfwrX77VKX7-55" style="edgeStyle=orthogonalEdgeStyle;rounded=0;orthogonalLoop=1;jettySize=auto;html=1;exitX=1;exitY=0.5;exitDx=0;exitDy=0;entryX=0;entryY=0.25;entryDx=0;entryDy=0;" parent="1" source="z2_gmYMCOCfwrX77VKX7-56" target="z2_gmYMCOCfwrX77VKX7-58" edge="1">
          <mxGeometry relative="1" as="geometry" />
        </mxCell>
        <mxCell id="z2_gmYMCOCfwrX77VKX7-56" value="MUX" style="shape=step;perimeter=stepPerimeter;whiteSpace=wrap;html=1;fixedSize=1;" parent="1" vertex="1">
          <mxGeometry x="1220" y="1255" width="120" height="80" as="geometry" />
        </mxCell>
        <mxCell id="z2_gmYMCOCfwrX77VKX7-57" style="edgeStyle=orthogonalEdgeStyle;rounded=0;orthogonalLoop=1;jettySize=auto;html=1;exitX=1;exitY=0.25;exitDx=0;exitDy=0;entryX=0;entryY=0.25;entryDx=0;entryDy=0;" parent="1" source="z2_gmYMCOCfwrX77VKX7-58" target="z2_gmYMCOCfwrX77VKX7-62" edge="1">
          <mxGeometry relative="1" as="geometry" />
        </mxCell>
        <mxCell id="z2_gmYMCOCfwrX77VKX7-58" value="C_register 256b" style="rounded=0;whiteSpace=wrap;html=1;" parent="1" vertex="1">
          <mxGeometry x="1070" y="1440" width="120" height="60" as="geometry" />
        </mxCell>
        <mxCell id="z2_gmYMCOCfwrX77VKX7-59" style="edgeStyle=orthogonalEdgeStyle;rounded=0;orthogonalLoop=1;jettySize=auto;html=1;exitX=0;exitY=0.5;exitDx=0;exitDy=0;entryX=0;entryY=0.5;entryDx=0;entryDy=0;" parent="1" target="z2_gmYMCOCfwrX77VKX7-62" edge="1">
          <mxGeometry relative="1" as="geometry">
            <mxPoint x="1220" y="1460" as="sourcePoint" />
            <Array as="points">
              <mxPoint x="1220" y="1480" />
            </Array>
          </mxGeometry>
        </mxCell>
        <mxCell id="z2_gmYMCOCfwrX77VKX7-60" style="edgeStyle=orthogonalEdgeStyle;rounded=0;orthogonalLoop=1;jettySize=auto;html=1;exitX=1;exitY=0.25;exitDx=0;exitDy=0;entryX=0;entryY=0.25;entryDx=0;entryDy=0;" parent="1" source="z2_gmYMCOCfwrX77VKX7-62" target="z2_gmYMCOCfwrX77VKX7-66" edge="1">
          <mxGeometry relative="1" as="geometry" />
        </mxCell>
        <mxCell id="z2_gmYMCOCfwrX77VKX7-61" style="edgeStyle=orthogonalEdgeStyle;rounded=0;orthogonalLoop=1;jettySize=auto;html=1;exitX=1;exitY=0.75;exitDx=0;exitDy=0;entryX=0;entryY=0.75;entryDx=0;entryDy=0;" parent="1" source="z2_gmYMCOCfwrX77VKX7-62" target="z2_gmYMCOCfwrX77VKX7-66" edge="1">
          <mxGeometry relative="1" as="geometry" />
        </mxCell>
        <mxCell id="z2_gmYMCOCfwrX77VKX7-62" value="BLAKLEY 6 - 7 times" style="whiteSpace=wrap;html=1;aspect=fixed;" parent="1" vertex="1">
          <mxGeometry x="1247" y="1440" width="80" height="80" as="geometry" />
        </mxCell>
        <mxCell id="z2_gmYMCOCfwrX77VKX7-63" style="edgeStyle=orthogonalEdgeStyle;rounded=0;orthogonalLoop=1;jettySize=auto;html=1;entryX=0;entryY=0.75;entryDx=0;entryDy=0;" parent="1" source="z2_gmYMCOCfwrX77VKX7-64" target="z2_gmYMCOCfwrX77VKX7-62" edge="1">
          <mxGeometry relative="1" as="geometry" />
        </mxCell>
        <mxCell id="z2_gmYMCOCfwrX77VKX7-64" value="key_n" style="text;html=1;align=center;verticalAlign=middle;whiteSpace=wrap;rounded=0;" parent="1" vertex="1">
          <mxGeometry x="1120" y="1510" width="60" height="30" as="geometry" />
        </mxCell>
        <mxCell id="z2_gmYMCOCfwrX77VKX7-65" style="edgeStyle=orthogonalEdgeStyle;rounded=0;orthogonalLoop=1;jettySize=auto;html=1;exitX=1;exitY=0.5;exitDx=0;exitDy=0;entryX=0;entryY=0.75;entryDx=0;entryDy=0;jumpStyle=arc;jumpSize=16;" parent="1" source="z2_gmYMCOCfwrX77VKX7-66" target="z2_gmYMCOCfwrX77VKX7-56" edge="1">
          <mxGeometry relative="1" as="geometry">
            <Array as="points">
              <mxPoint x="1560" y="1480" />
              <mxPoint x="1560" y="1370" />
              <mxPoint x="1210" y="1370" />
              <mxPoint x="1210" y="1311" />
            </Array>
          </mxGeometry>
        </mxCell>
        <mxCell id="z2_gmYMCOCfwrX77VKX7-66" value="MUX" style="shape=step;perimeter=stepPerimeter;whiteSpace=wrap;html=1;fixedSize=1;" parent="1" vertex="1">
          <mxGeometry x="1420" y="1440" width="120" height="80" as="geometry" />
        </mxCell>
        <mxCell id="z2_gmYMCOCfwrX77VKX7-67" style="edgeStyle=orthogonalEdgeStyle;rounded=0;orthogonalLoop=1;jettySize=auto;html=1;exitX=0;exitY=0.75;exitDx=0;exitDy=0;entryX=0;entryY=0.25;entryDx=0;entryDy=0;" parent="1" source="z2_gmYMCOCfwrX77VKX7-69" target="z2_gmYMCOCfwrX77VKX7-31" edge="1">
          <mxGeometry relative="1" as="geometry">
            <Array as="points">
              <mxPoint x="767" y="1270" />
            </Array>
          </mxGeometry>
        </mxCell>
        <mxCell id="z2_gmYMCOCfwrX77VKX7-68" style="edgeStyle=orthogonalEdgeStyle;rounded=0;orthogonalLoop=1;jettySize=auto;html=1;exitX=0;exitY=0.25;exitDx=0;exitDy=0;entryX=0;entryY=0.25;entryDx=0;entryDy=0;" parent="1" source="z2_gmYMCOCfwrX77VKX7-69" target="z2_gmYMCOCfwrX77VKX7-72" edge="1">
          <mxGeometry relative="1" as="geometry">
            <Array as="points">
              <mxPoint x="820" y="1303" />
              <mxPoint x="820" y="1360" />
              <mxPoint x="930" y="1360" />
              <mxPoint x="930" y="1725" />
            </Array>
          </mxGeometry>
        </mxCell>
        <mxCell id="z2_gmYMCOCfwrX77VKX7-69" value="" style="shape=step;perimeter=stepPerimeter;whiteSpace=wrap;html=1;fixedSize=1;rotation=-180;" parent="1" vertex="1">
          <mxGeometry x="700" y="1250" width="80" height="80" as="geometry" />
        </mxCell>
        <mxCell id="z2_gmYMCOCfwrX77VKX7-70" value="&lt;font style=&quot;font-size: 20px;&quot;&gt;Modular Exponentiation&lt;/font&gt;" style="text;html=1;align=center;verticalAlign=middle;whiteSpace=wrap;rounded=0;" parent="1" vertex="1">
          <mxGeometry x="902.5" y="1105" width="187.5" height="30" as="geometry" />
        </mxCell>
        <mxCell id="z2_gmYMCOCfwrX77VKX7-71" style="edgeStyle=orthogonalEdgeStyle;rounded=0;orthogonalLoop=1;jettySize=auto;html=1;entryX=0.75;entryY=1;entryDx=0;entryDy=0;" parent="1" source="z2_gmYMCOCfwrX77VKX7-72" target="z2_gmYMCOCfwrX77VKX7-66" edge="1">
          <mxGeometry relative="1" as="geometry" />
        </mxCell>
        <mxCell id="z2_gmYMCOCfwrX77VKX7-72" value="LUT&lt;div&gt;!=&lt;/div&gt;" style="rounded=0;whiteSpace=wrap;html=1;" parent="1" vertex="1">
          <mxGeometry x="970" y="1710" width="120" height="60" as="geometry" />
        </mxCell>
        <mxCell id="z2_gmYMCOCfwrX77VKX7-73" style="edgeStyle=orthogonalEdgeStyle;rounded=0;orthogonalLoop=1;jettySize=auto;html=1;entryX=0;entryY=0.75;entryDx=0;entryDy=0;" parent="1" source="z2_gmYMCOCfwrX77VKX7-74" target="z2_gmYMCOCfwrX77VKX7-72" edge="1">
          <mxGeometry relative="1" as="geometry">
            <Array as="points">
              <mxPoint x="830" y="1755" />
            </Array>
          </mxGeometry>
        </mxCell>
        <mxCell id="z2_gmYMCOCfwrX77VKX7-74" value="0" style="text;html=1;align=center;verticalAlign=middle;whiteSpace=wrap;rounded=0;" parent="1" vertex="1">
          <mxGeometry x="790" y="1740" width="60" height="30" as="geometry" />
        </mxCell>
        <mxCell id="z2_gmYMCOCfwrX77VKX7-75" style="edgeStyle=orthogonalEdgeStyle;rounded=0;orthogonalLoop=1;jettySize=auto;html=1;entryX=0.25;entryY=1;entryDx=0;entryDy=0;exitX=0;exitY=0.25;exitDx=0;exitDy=0;" parent="1" source="z2_gmYMCOCfwrX77VKX7-140" target="z2_gmYMCOCfwrX77VKX7-62" edge="1">
          <mxGeometry relative="1" as="geometry">
            <Array as="points">
              <mxPoint x="1070" y="1303" />
              <mxPoint x="1070" y="1340" />
              <mxPoint x="1000" y="1340" />
              <mxPoint x="1000" y="1560" />
              <mxPoint x="1267" y="1560" />
            </Array>
            <mxPoint x="1000" y="1340" as="sourcePoint" />
            <mxPoint x="1370" y="1630" as="targetPoint" />
          </mxGeometry>
        </mxCell>
        <mxCell id="z2_gmYMCOCfwrX77VKX7-76" style="edgeStyle=orthogonalEdgeStyle;rounded=0;orthogonalLoop=1;jettySize=auto;html=1;entryX=0.5;entryY=1;entryDx=0;entryDy=0;exitX=0;exitY=0.75;exitDx=0;exitDy=0;" parent="1" source="z2_gmYMCOCfwrX77VKX7-140" target="z2_gmYMCOCfwrX77VKX7-50" edge="1">
          <mxGeometry relative="1" as="geometry">
            <mxPoint x="1050" y="1300.047619047619" as="sourcePoint" />
            <Array as="points">
              <mxPoint x="1037" y="1280" />
            </Array>
          </mxGeometry>
        </mxCell>
        <mxCell id="z2_gmYMCOCfwrX77VKX7-77" value="FOR Loop" style="text;html=1;align=center;verticalAlign=middle;whiteSpace=wrap;rounded=0;" parent="1" vertex="1">
          <mxGeometry x="660" y="1440" width="60" height="30" as="geometry" />
        </mxCell>
        <mxCell id="z2_gmYMCOCfwrX77VKX7-78" style="edgeStyle=orthogonalEdgeStyle;rounded=0;orthogonalLoop=1;jettySize=auto;html=1;exitX=0;exitY=0.25;exitDx=0;exitDy=0;entryX=0;entryY=0.75;entryDx=0;entryDy=0;" parent="1" target="z2_gmYMCOCfwrX77VKX7-79" edge="1">
          <mxGeometry relative="1" as="geometry">
            <mxPoint x="730" y="1519.9999999999998" as="sourcePoint" />
          </mxGeometry>
        </mxCell>
        <mxCell id="z2_gmYMCOCfwrX77VKX7-79" value="LUT&lt;div&gt;== -1&lt;/div&gt;" style="rounded=0;whiteSpace=wrap;html=1;" parent="1" vertex="1">
          <mxGeometry x="780" y="1470" width="120" height="60" as="geometry" />
        </mxCell>
        <mxCell id="z2_gmYMCOCfwrX77VKX7-80" style="edgeStyle=orthogonalEdgeStyle;rounded=0;orthogonalLoop=1;jettySize=auto;html=1;entryX=0;entryY=0.25;entryDx=0;entryDy=0;" parent="1" target="z2_gmYMCOCfwrX77VKX7-79" edge="1">
          <mxGeometry relative="1" as="geometry">
            <Array as="points">
              <mxPoint x="760" y="1485" />
              <mxPoint x="760" y="1485" />
            </Array>
            <mxPoint x="740" y="1485" as="sourcePoint" />
          </mxGeometry>
        </mxCell>
        <mxCell id="z2_gmYMCOCfwrX77VKX7-81" value="-1" style="text;html=1;align=center;verticalAlign=middle;whiteSpace=wrap;rounded=0;" parent="1" vertex="1">
          <mxGeometry x="715" y="1469.9299999999998" width="30" height="30" as="geometry" />
        </mxCell>
        <mxCell id="z2_gmYMCOCfwrX77VKX7-82" style="edgeStyle=orthogonalEdgeStyle;rounded=0;orthogonalLoop=1;jettySize=auto;html=1;exitX=1;exitY=0.5;exitDx=0;exitDy=0;" parent="1" source="z2_gmYMCOCfwrX77VKX7-83" edge="1">
          <mxGeometry relative="1" as="geometry">
            <mxPoint x="1590" y="1204.5294117647059" as="targetPoint" />
          </mxGeometry>
        </mxCell>
        <mxCell id="z2_gmYMCOCfwrX77VKX7-83" value="out_for_loop" style="text;html=1;align=center;verticalAlign=middle;whiteSpace=wrap;rounded=0;" parent="1" vertex="1">
          <mxGeometry x="1450" y="1190" width="60" height="30" as="geometry" />
        </mxCell>
        <mxCell id="z2_gmYMCOCfwrX77VKX7-84" style="edgeStyle=orthogonalEdgeStyle;rounded=0;orthogonalLoop=1;jettySize=auto;html=1;exitX=1;exitY=0.5;exitDx=0;exitDy=0;" parent="1" source="z2_gmYMCOCfwrX77VKX7-85" edge="1">
          <mxGeometry relative="1" as="geometry">
            <mxPoint x="1590" y="1240" as="targetPoint" />
          </mxGeometry>
        </mxCell>
        <mxCell id="z2_gmYMCOCfwrX77VKX7-85" value="C" style="text;html=1;align=center;verticalAlign=middle;whiteSpace=wrap;rounded=0;" parent="1" vertex="1">
          <mxGeometry x="1440" y="1225" width="60" height="30" as="geometry" />
        </mxCell>
        <mxCell id="z2_gmYMCOCfwrX77VKX7-86" value="" style="endArrow=classic;html=1;rounded=0;" parent="1" edge="1">
          <mxGeometry width="50" height="50" relative="1" as="geometry">
            <mxPoint x="1581" y="1240" as="sourcePoint" />
            <mxPoint x="1650" y="1240" as="targetPoint" />
          </mxGeometry>
        </mxCell>
        <mxCell id="z2_gmYMCOCfwrX77VKX7-87" value="" style="endArrow=classic;html=1;rounded=0;" parent="1" edge="1">
          <mxGeometry width="50" height="50" relative="1" as="geometry">
            <mxPoint x="1590" y="1204.4099999999999" as="sourcePoint" />
            <mxPoint x="1650" y="1204" as="targetPoint" />
          </mxGeometry>
        </mxCell>
        <mxCell id="z2_gmYMCOCfwrX77VKX7-88" value="" style="endArrow=classic;html=1;rounded=0;" parent="1" edge="1">
          <mxGeometry width="50" height="50" relative="1" as="geometry">
            <mxPoint x="310" y="1340" as="sourcePoint" />
            <mxPoint x="380" y="1340" as="targetPoint" />
          </mxGeometry>
        </mxCell>
        <mxCell id="z2_gmYMCOCfwrX77VKX7-89" value="" style="swimlane;startSize=0;movable=1;resizable=1;rotatable=1;deletable=1;editable=1;locked=0;connectable=1;" parent="1" vertex="1">
          <mxGeometry x="235" y="485" width="480" height="530" as="geometry" />
        </mxCell>
        <mxCell id="z2_gmYMCOCfwrX77VKX7-90" value="8-Row register bank" style="rounded=0;whiteSpace=wrap;html=1;labelPosition=center;verticalLabelPosition=top;align=center;verticalAlign=bottom;fontSize=16;" parent="z2_gmYMCOCfwrX77VKX7-89" vertex="1">
          <mxGeometry x="50" y="335" width="120" height="135" as="geometry" />
        </mxCell>
        <mxCell id="z2_gmYMCOCfwrX77VKX7-91" value="W" style="text;html=1;align=center;verticalAlign=middle;whiteSpace=wrap;rounded=0;" parent="z2_gmYMCOCfwrX77VKX7-89" vertex="1">
          <mxGeometry x="40" y="440" width="60" height="30" as="geometry" />
        </mxCell>
        <mxCell id="z2_gmYMCOCfwrX77VKX7-92" value="Data in" style="text;html=1;align=center;verticalAlign=middle;whiteSpace=wrap;rounded=0;" parent="z2_gmYMCOCfwrX77VKX7-89" vertex="1">
          <mxGeometry x="50" y="376" width="60" height="30" as="geometry" />
        </mxCell>
        <mxCell id="z2_gmYMCOCfwrX77VKX7-93" value="Reg. Select" style="text;html=1;align=center;verticalAlign=middle;whiteSpace=wrap;rounded=0;" parent="z2_gmYMCOCfwrX77VKX7-89" vertex="1">
          <mxGeometry x="120" y="435" width="60" height="30" as="geometry" />
        </mxCell>
        <mxCell id="z2_gmYMCOCfwrX77VKX7-94" value="Data out" style="text;html=1;align=center;verticalAlign=middle;whiteSpace=wrap;rounded=0;" parent="z2_gmYMCOCfwrX77VKX7-89" vertex="1">
          <mxGeometry x="110" y="376" width="60" height="30" as="geometry" />
        </mxCell>
        <mxCell id="z2_gmYMCOCfwrX77VKX7-95" value="R" style="text;html=1;align=center;verticalAlign=middle;whiteSpace=wrap;rounded=0;" parent="z2_gmYMCOCfwrX77VKX7-89" vertex="1">
          <mxGeometry x="80" y="440" width="60" height="30" as="geometry" />
        </mxCell>
        <mxCell id="z2_gmYMCOCfwrX77VKX7-96" value="" style="endArrow=classic;html=1;rounded=0;entryX=1;entryY=0.736;entryDx=0;entryDy=0;exitX=1;exitY=0.5;exitDx=0;exitDy=0;entryPerimeter=0;" parent="z2_gmYMCOCfwrX77VKX7-89" source="z2_gmYMCOCfwrX77VKX7-94" target="z2_gmYMCOCfwrX77VKX7-89" edge="1">
          <mxGeometry width="50" height="50" relative="1" as="geometry">
            <mxPoint x="390" y="480" as="sourcePoint" />
            <mxPoint x="440" y="430" as="targetPoint" />
          </mxGeometry>
        </mxCell>
        <mxCell id="z2_gmYMCOCfwrX77VKX7-97" value="key_n" style="text;html=1;align=center;verticalAlign=middle;whiteSpace=wrap;rounded=0;" parent="1" vertex="1">
          <mxGeometry x="260" y="1325" width="60" height="30" as="geometry" />
        </mxCell>
        <mxCell id="z2_gmYMCOCfwrX77VKX7-98" value="key_e" style="text;html=1;align=center;verticalAlign=middle;whiteSpace=wrap;rounded=0;" parent="1" vertex="1">
          <mxGeometry x="115" y="645" width="60" height="30" as="geometry" />
        </mxCell>
        <mxCell id="z2_gmYMCOCfwrX77VKX7-99" style="edgeStyle=orthogonalEdgeStyle;rounded=0;orthogonalLoop=1;jettySize=auto;html=1;entryX=-0.008;entryY=0.425;entryDx=0;entryDy=0;entryPerimeter=0;" parent="1" source="z2_gmYMCOCfwrX77VKX7-103" target="z2_gmYMCOCfwrX77VKX7-105" edge="1">
          <mxGeometry relative="1" as="geometry">
            <Array as="points">
              <mxPoint x="1470" y="747" />
            </Array>
          </mxGeometry>
        </mxCell>
        <mxCell id="z2_gmYMCOCfwrX77VKX7-100" style="edgeStyle=orthogonalEdgeStyle;rounded=0;orthogonalLoop=1;jettySize=auto;html=1;exitX=1;exitY=0.75;exitDx=0;exitDy=0;entryX=0.167;entryY=1.001;entryDx=0;entryDy=0;entryPerimeter=0;" parent="1" source="z2_gmYMCOCfwrX77VKX7-103" target="z2_gmYMCOCfwrX77VKX7-105" edge="1">
          <mxGeometry relative="1" as="geometry">
            <mxPoint x="1620" y="835" as="targetPoint" />
            <Array as="points">
              <mxPoint x="1470" y="770" />
              <mxPoint x="1470" y="865" />
              <mxPoint x="1610" y="865" />
            </Array>
          </mxGeometry>
        </mxCell>
        <mxCell id="z2_gmYMCOCfwrX77VKX7-101" value="Res Ready" style="edgeStyle=orthogonalEdgeStyle;rounded=0;orthogonalLoop=1;jettySize=auto;html=1;exitX=1;exitY=0.75;exitDx=0;exitDy=0;entryX=0;entryY=0.5;entryDx=0;entryDy=0;labelPosition=right;verticalLabelPosition=top;align=left;verticalAlign=bottom;" parent="1" source="z2_gmYMCOCfwrX77VKX7-103" target="z2_gmYMCOCfwrX77VKX7-110" edge="1">
          <mxGeometry x="-0.0115" relative="1" as="geometry">
            <mxPoint as="offset" />
          </mxGeometry>
        </mxCell>
        <mxCell id="z2_gmYMCOCfwrX77VKX7-102" value="Res Ready" style="edgeStyle=orthogonalEdgeStyle;rounded=0;orthogonalLoop=1;jettySize=auto;html=1;exitX=1;exitY=0.75;exitDx=0;exitDy=0;entryX=-0.005;entryY=0.834;entryDx=0;entryDy=0;entryPerimeter=0;labelPosition=center;verticalLabelPosition=top;align=center;verticalAlign=bottom;" parent="1" source="z2_gmYMCOCfwrX77VKX7-103" target="z2_gmYMCOCfwrX77VKX7-107" edge="1">
          <mxGeometry x="-0.3774" relative="1" as="geometry">
            <mxPoint x="1200" y="625" as="targetPoint" />
            <Array as="points">
              <mxPoint x="1370" y="770" />
              <mxPoint x="1370" y="825" />
              <mxPoint x="1150" y="825" />
              <mxPoint x="1150" y="645" />
            </Array>
            <mxPoint as="offset" />
          </mxGeometry>
        </mxCell>
        <mxCell id="z2_gmYMCOCfwrX77VKX7-103" value="Blakely Mult" style="rounded=0;whiteSpace=wrap;html=1;fontSize=14;align=center;labelPosition=center;verticalLabelPosition=top;verticalAlign=bottom;" parent="1" vertex="1">
          <mxGeometry x="1230" y="725" width="120" height="60" as="geometry" />
        </mxCell>
        <mxCell id="z2_gmYMCOCfwrX77VKX7-104" style="edgeStyle=orthogonalEdgeStyle;rounded=0;orthogonalLoop=1;jettySize=auto;html=1;jumpStyle=arc;" parent="1" target="z2_gmYMCOCfwrX77VKX7-105" edge="1">
          <mxGeometry relative="1" as="geometry">
            <mxPoint x="1320" y="885" as="sourcePoint" />
            <Array as="points">
              <mxPoint x="1320" y="886" />
              <mxPoint x="1650" y="886" />
            </Array>
          </mxGeometry>
        </mxCell>
        <mxCell id="z2_gmYMCOCfwrX77VKX7-105" value="8-Row register bank" style="rounded=0;whiteSpace=wrap;html=1;labelPosition=center;verticalLabelPosition=top;align=center;verticalAlign=bottom;fontSize=16;" parent="1" vertex="1">
          <mxGeometry x="1590" y="690" width="120" height="135" as="geometry" />
        </mxCell>
        <mxCell id="z2_gmYMCOCfwrX77VKX7-106" style="edgeStyle=orthogonalEdgeStyle;rounded=0;orthogonalLoop=1;jettySize=auto;html=1;entryX=0;entryY=0.5;entryDx=0;entryDy=0;exitX=1;exitY=0.5;exitDx=0;exitDy=0;" parent="1" source="z2_gmYMCOCfwrX77VKX7-107" target="z2_gmYMCOCfwrX77VKX7-103" edge="1">
          <mxGeometry relative="1" as="geometry">
            <Array as="points">
              <mxPoint x="1370" y="625" />
              <mxPoint x="1370" y="695" />
              <mxPoint x="1210" y="695" />
              <mxPoint x="1210" y="755" />
            </Array>
          </mxGeometry>
        </mxCell>
        <mxCell id="z2_gmYMCOCfwrX77VKX7-107" value="S-R Flip Flop" style="rounded=0;whiteSpace=wrap;html=1;labelPosition=center;verticalLabelPosition=top;align=center;verticalAlign=bottom;fontSize=18;" parent="1" vertex="1">
          <mxGeometry x="1270" y="595" width="80" height="60" as="geometry" />
        </mxCell>
        <mxCell id="z2_gmYMCOCfwrX77VKX7-108" style="edgeStyle=orthogonalEdgeStyle;rounded=0;orthogonalLoop=1;jettySize=auto;html=1;" parent="1" source="z2_gmYMCOCfwrX77VKX7-110" target="z2_gmYMCOCfwrX77VKX7-105" edge="1">
          <mxGeometry relative="1" as="geometry">
            <Array as="points">
              <mxPoint x="1690" y="865" />
              <mxPoint x="1690" y="865" />
            </Array>
          </mxGeometry>
        </mxCell>
        <mxCell id="z2_gmYMCOCfwrX77VKX7-109" style="edgeStyle=orthogonalEdgeStyle;rounded=0;orthogonalLoop=1;jettySize=auto;html=1;" parent="1" source="z2_gmYMCOCfwrX77VKX7-110" edge="1">
          <mxGeometry relative="1" as="geometry">
            <mxPoint x="1950" y="965" as="targetPoint" />
          </mxGeometry>
        </mxCell>
        <mxCell id="z2_gmYMCOCfwrX77VKX7-110" value="FSM" style="rounded=0;whiteSpace=wrap;html=1;fontSize=18;labelPosition=center;verticalLabelPosition=top;align=center;verticalAlign=bottom;" parent="1" vertex="1">
          <mxGeometry x="1590" y="915" width="120" height="100" as="geometry" />
        </mxCell>
        <mxCell id="z2_gmYMCOCfwrX77VKX7-111" value="Mod" style="endArrow=classic;html=1;rounded=0;entryX=0;entryY=0.75;entryDx=0;entryDy=0;labelPosition=left;verticalLabelPosition=middle;align=right;verticalAlign=middle;fontSize=18;jumpStyle=arc;" parent="1" target="z2_gmYMCOCfwrX77VKX7-103" edge="1">
          <mxGeometry x="-1" width="50" height="50" relative="1" as="geometry">
            <mxPoint x="1020" y="770" as="sourcePoint" />
            <mxPoint x="1190" y="765" as="targetPoint" />
            <mxPoint as="offset" />
          </mxGeometry>
        </mxCell>
        <mxCell id="z2_gmYMCOCfwrX77VKX7-112" value="Global Reset" style="endArrow=classic;html=1;rounded=0;entryX=0;entryY=0.25;entryDx=0;entryDy=0;labelPosition=left;verticalLabelPosition=middle;align=right;verticalAlign=middle;" parent="1" target="z2_gmYMCOCfwrX77VKX7-107" edge="1">
          <mxGeometry x="-1" width="50" height="50" relative="1" as="geometry">
            <mxPoint x="1100" y="610" as="sourcePoint" />
            <mxPoint x="1170" y="585" as="targetPoint" />
            <mxPoint as="offset" />
          </mxGeometry>
        </mxCell>
        <mxCell id="z2_gmYMCOCfwrX77VKX7-113" value="" style="endArrow=classic;html=1;rounded=0;" parent="1" edge="1">
          <mxGeometry width="50" height="50" relative="1" as="geometry">
            <mxPoint x="1470" y="747" as="sourcePoint" />
            <mxPoint x="1370" y="695" as="targetPoint" />
            <Array as="points">
              <mxPoint x="1470" y="695" />
            </Array>
          </mxGeometry>
        </mxCell>
        <mxCell id="z2_gmYMCOCfwrX77VKX7-114" value="A" style="text;html=1;align=center;verticalAlign=middle;whiteSpace=wrap;rounded=0;" parent="1" vertex="1">
          <mxGeometry x="1210" y="725" width="60" height="30" as="geometry" />
        </mxCell>
        <mxCell id="z2_gmYMCOCfwrX77VKX7-115" value="B" style="text;html=1;align=center;verticalAlign=middle;whiteSpace=wrap;rounded=0;" parent="1" vertex="1">
          <mxGeometry x="1210" y="740" width="60" height="30" as="geometry" />
        </mxCell>
        <mxCell id="z2_gmYMCOCfwrX77VKX7-116" value="mod" style="text;html=1;align=center;verticalAlign=middle;whiteSpace=wrap;rounded=0;" parent="1" vertex="1">
          <mxGeometry x="1220" y="755" width="60" height="30" as="geometry" />
        </mxCell>
        <mxCell id="z2_gmYMCOCfwrX77VKX7-117" value="Result" style="text;html=1;align=center;verticalAlign=middle;whiteSpace=wrap;rounded=0;" parent="1" vertex="1">
          <mxGeometry x="1299" y="731" width="60" height="30" as="geometry" />
        </mxCell>
        <mxCell id="z2_gmYMCOCfwrX77VKX7-118" value="Res Ready" style="text;html=1;align=center;verticalAlign=middle;whiteSpace=wrap;rounded=0;" parent="1" vertex="1">
          <mxGeometry x="1299" y="755" width="60" height="30" as="geometry" />
        </mxCell>
        <mxCell id="z2_gmYMCOCfwrX77VKX7-119" value="W" style="text;html=1;align=center;verticalAlign=middle;whiteSpace=wrap;rounded=0;" parent="1" vertex="1">
          <mxGeometry x="1580" y="795" width="60" height="30" as="geometry" />
        </mxCell>
        <mxCell id="z2_gmYMCOCfwrX77VKX7-120" value="Data in" style="text;html=1;align=center;verticalAlign=middle;whiteSpace=wrap;rounded=0;" parent="1" vertex="1">
          <mxGeometry x="1590" y="731" width="60" height="30" as="geometry" />
        </mxCell>
        <mxCell id="z2_gmYMCOCfwrX77VKX7-121" value="Reg. Select" style="text;html=1;align=center;verticalAlign=middle;whiteSpace=wrap;rounded=0;" parent="1" vertex="1">
          <mxGeometry x="1660" y="790" width="60" height="30" as="geometry" />
        </mxCell>
        <mxCell id="z2_gmYMCOCfwrX77VKX7-122" style="edgeStyle=orthogonalEdgeStyle;rounded=0;orthogonalLoop=1;jettySize=auto;html=1;" parent="1" source="z2_gmYMCOCfwrX77VKX7-123" edge="1">
          <mxGeometry relative="1" as="geometry">
            <mxPoint x="1950" y="746" as="targetPoint" />
          </mxGeometry>
        </mxCell>
        <mxCell id="z2_gmYMCOCfwrX77VKX7-123" value="Data out" style="text;html=1;align=center;verticalAlign=middle;whiteSpace=wrap;rounded=0;" parent="1" vertex="1">
          <mxGeometry x="1650" y="731" width="60" height="30" as="geometry" />
        </mxCell>
        <mxCell id="z2_gmYMCOCfwrX77VKX7-124" value="Reg Ready" style="text;html=1;align=center;verticalAlign=middle;whiteSpace=wrap;rounded=0;" parent="1" vertex="1">
          <mxGeometry x="1650" y="950" width="60" height="30" as="geometry" />
        </mxCell>
        <mxCell id="z2_gmYMCOCfwrX77VKX7-125" value="S" style="text;html=1;align=center;verticalAlign=middle;whiteSpace=wrap;rounded=0;" parent="1" vertex="1">
          <mxGeometry x="1250" y="595" width="60" height="30" as="geometry" />
        </mxCell>
        <mxCell id="z2_gmYMCOCfwrX77VKX7-126" value="R" style="text;html=1;align=center;verticalAlign=middle;whiteSpace=wrap;rounded=0;" parent="1" vertex="1">
          <mxGeometry x="1250" y="631" width="60" height="30" as="geometry" />
        </mxCell>
        <mxCell id="z2_gmYMCOCfwrX77VKX7-127" value="Out" style="text;html=1;align=center;verticalAlign=middle;whiteSpace=wrap;rounded=0;" parent="1" vertex="1">
          <mxGeometry x="1299" y="610" width="60" height="30" as="geometry" />
        </mxCell>
        <mxCell id="z2_gmYMCOCfwrX77VKX7-128" value="R" style="text;html=1;align=center;verticalAlign=middle;whiteSpace=wrap;rounded=0;" parent="1" vertex="1">
          <mxGeometry x="1620" y="795" width="60" height="30" as="geometry" />
        </mxCell>
        <mxCell id="z2_gmYMCOCfwrX77VKX7-129" style="edgeStyle=orthogonalEdgeStyle;rounded=0;orthogonalLoop=1;jettySize=auto;html=1;exitX=1;exitY=1;exitDx=0;exitDy=0;" parent="1" source="z2_gmYMCOCfwrX77VKX7-130" edge="1">
          <mxGeometry relative="1" as="geometry">
            <mxPoint x="1690" y="895" as="targetPoint" />
            <Array as="points">
              <mxPoint x="1860" y="850" />
              <mxPoint x="1940" y="850" />
              <mxPoint x="1940" y="895" />
            </Array>
          </mxGeometry>
        </mxCell>
        <mxCell id="z2_gmYMCOCfwrX77VKX7-130" value="Adress Decoder" style="rounded=0;whiteSpace=wrap;html=1;labelPosition=center;verticalLabelPosition=top;align=center;verticalAlign=bottom;" parent="1" vertex="1">
          <mxGeometry x="1780" y="825" width="80" height="50" as="geometry" />
        </mxCell>
        <mxCell id="z2_gmYMCOCfwrX77VKX7-131" value="In" style="text;html=1;align=center;verticalAlign=middle;whiteSpace=wrap;rounded=0;" parent="1" vertex="1">
          <mxGeometry x="1760" y="835" width="60" height="30" as="geometry" />
        </mxCell>
        <mxCell id="z2_gmYMCOCfwrX77VKX7-132" value="Out" style="text;html=1;align=center;verticalAlign=middle;whiteSpace=wrap;rounded=0;" parent="1" vertex="1">
          <mxGeometry x="1810" y="835" width="60" height="30" as="geometry" />
        </mxCell>
        <mxCell id="z2_gmYMCOCfwrX77VKX7-133" value="" style="swimlane;startSize=0;" parent="1" vertex="1">
          <mxGeometry x="970" y="525" width="1080" height="530" as="geometry" />
        </mxCell>
        <mxCell id="z2_gmYMCOCfwrX77VKX7-134" value="&lt;font style=&quot;font-size: 18px;&quot;&gt;M&lt;/font&gt;" style="text;html=1;align=center;verticalAlign=middle;whiteSpace=wrap;rounded=0;" parent="1" vertex="1">
          <mxGeometry x="1420" y="490" width="60" height="30" as="geometry" />
        </mxCell>
        <mxCell id="z2_gmYMCOCfwrX77VKX7-135" value="&lt;font style=&quot;font-size: 24px;&quot;&gt;F&lt;/font&gt;" style="text;html=1;align=center;verticalAlign=middle;whiteSpace=wrap;rounded=0;" parent="1" vertex="1">
          <mxGeometry x="480" y="455" width="60" height="30" as="geometry" />
        </mxCell>
        <mxCell id="z2_gmYMCOCfwrX77VKX7-136" value="key_n" style="text;html=1;align=center;verticalAlign=middle;whiteSpace=wrap;rounded=0;" parent="1" vertex="1">
          <mxGeometry x="1020" y="1349.9299999999998" width="60" height="30" as="geometry" />
        </mxCell>
        <mxCell id="z2_gmYMCOCfwrX77VKX7-137" value="" style="endArrow=classic;html=1;rounded=0;entryX=0;entryY=0.25;entryDx=0;entryDy=0;" parent="1" target="z2_gmYMCOCfwrX77VKX7-52" edge="1">
          <mxGeometry width="50" height="50" relative="1" as="geometry">
            <mxPoint x="310" y="1287" as="sourcePoint" />
            <mxPoint x="330" y="1320" as="targetPoint" />
          </mxGeometry>
        </mxCell>
        <mxCell id="z2_gmYMCOCfwrX77VKX7-138" value="Reset" style="text;html=1;align=center;verticalAlign=middle;whiteSpace=wrap;rounded=0;" parent="1" vertex="1">
          <mxGeometry x="260" y="1271" width="60" height="30" as="geometry" />
        </mxCell>
        <mxCell id="z2_gmYMCOCfwrX77VKX7-139" value="DEMUX" style="text;html=1;align=center;verticalAlign=middle;whiteSpace=wrap;rounded=0;" parent="1" vertex="1">
          <mxGeometry x="700" y="1275" width="60" height="30" as="geometry" />
        </mxCell>
        <mxCell id="z2_gmYMCOCfwrX77VKX7-140" value="" style="shape=step;perimeter=stepPerimeter;whiteSpace=wrap;html=1;fixedSize=1;rotation=-180;" parent="1" vertex="1">
          <mxGeometry x="970" y="1250" width="80" height="80" as="geometry" />
        </mxCell>
        <mxCell id="z2_gmYMCOCfwrX77VKX7-141" value="DEMUX" style="text;html=1;align=center;verticalAlign=middle;whiteSpace=wrap;rounded=0;" parent="1" vertex="1">
          <mxGeometry x="970" y="1275" width="60" height="30" as="geometry" />
        </mxCell>
        <mxCell id="z2_gmYMCOCfwrX77VKX7-142" value="Reset" style="text;html=1;align=center;verticalAlign=middle;whiteSpace=wrap;rounded=0;" parent="1" vertex="1">
          <mxGeometry x="115" y="586" width="60" height="30" as="geometry" />
        </mxCell>
        <mxCell id="z2_gmYMCOCfwrX77VKX7-143" value="0" style="text;html=1;align=center;verticalAlign=middle;whiteSpace=wrap;rounded=0;" parent="1" vertex="1">
          <mxGeometry x="860" y="631" width="60" height="30" as="geometry" />
        </mxCell>
        <mxCell id="z2_gmYMCOCfwrX77VKX7-144" value="" style="endArrow=classic;html=1;rounded=0;entryX=0;entryY=0.25;entryDx=0;entryDy=0;" parent="1" edge="1">
          <mxGeometry width="50" height="50" relative="1" as="geometry">
            <mxPoint x="715" y="875" as="sourcePoint" />
            <mxPoint x="785" y="876" as="targetPoint" />
          </mxGeometry>
        </mxCell>
        <mxCell id="z2_gmYMCOCfwrX77VKX7-145" style="edgeStyle=orthogonalEdgeStyle;rounded=0;orthogonalLoop=1;jettySize=auto;html=1;entryX=-0.002;entryY=0.33;entryDx=0;entryDy=0;entryPerimeter=0;" parent="1" source="z2_gmYMCOCfwrX77VKX7-98" target="z2_gmYMCOCfwrX77VKX7-89" edge="1">
          <mxGeometry relative="1" as="geometry" />
        </mxCell>
        <mxCell id="z2_gmYMCOCfwrX77VKX7-146" style="edgeStyle=orthogonalEdgeStyle;rounded=0;orthogonalLoop=1;jettySize=auto;html=1;entryX=-0.005;entryY=0.219;entryDx=0;entryDy=0;entryPerimeter=0;" parent="1" source="z2_gmYMCOCfwrX77VKX7-142" target="z2_gmYMCOCfwrX77VKX7-89" edge="1">
          <mxGeometry relative="1" as="geometry" />
        </mxCell>
        <mxCell id="z2_gmYMCOCfwrX77VKX7-147" value="key_n" style="text;html=1;align=center;verticalAlign=middle;whiteSpace=wrap;rounded=0;" parent="1" vertex="1">
          <mxGeometry x="116" y="680" width="60" height="30" as="geometry" />
        </mxCell>
        <mxCell id="z2_gmYMCOCfwrX77VKX7-148" style="edgeStyle=orthogonalEdgeStyle;rounded=0;orthogonalLoop=1;jettySize=auto;html=1;entryX=-0.002;entryY=0.33;entryDx=0;entryDy=0;entryPerimeter=0;" parent="1" source="z2_gmYMCOCfwrX77VKX7-147" edge="1">
          <mxGeometry relative="1" as="geometry">
            <mxPoint x="235" y="695" as="targetPoint" />
          </mxGeometry>
        </mxCell>
        <mxCell id="z2_gmYMCOCfwrX77VKX7-149" value="" style="endArrow=classic;html=1;rounded=0;entryX=0.25;entryY=0;entryDx=0;entryDy=0;exitX=0.001;exitY=0.406;exitDx=0;exitDy=0;exitPerimeter=0;jumpStyle=arc;" parent="1" source="z2_gmYMCOCfwrX77VKX7-133" target="z2_gmYMCOCfwrX77VKX7-115" edge="1">
          <mxGeometry width="50" height="50" relative="1" as="geometry">
            <mxPoint x="870" y="760" as="sourcePoint" />
            <mxPoint x="920" y="710" as="targetPoint" />
          </mxGeometry>
        </mxCell>
        <mxCell id="z2_gmYMCOCfwrX77VKX7-150" style="edgeStyle=orthogonalEdgeStyle;rounded=0;orthogonalLoop=1;jettySize=auto;html=1;exitX=1;exitY=0.5;exitDx=0;exitDy=0;" parent="1" source="z2_gmYMCOCfwrX77VKX7-151" edge="1">
          <mxGeometry relative="1" as="geometry">
            <mxPoint x="970" y="740" as="targetPoint" />
          </mxGeometry>
        </mxCell>
        <mxCell id="z2_gmYMCOCfwrX77VKX7-151" value="msgin_data" style="text;html=1;align=center;verticalAlign=middle;whiteSpace=wrap;rounded=0;" parent="1" vertex="1">
          <mxGeometry x="860" y="725" width="60" height="30" as="geometry" />
        </mxCell>
        <mxCell id="z2_gmYMCOCfwrX77VKX7-152" style="edgeStyle=orthogonalEdgeStyle;rounded=0;orthogonalLoop=1;jettySize=auto;html=1;exitX=1;exitY=0.5;exitDx=0;exitDy=0;entryX=0;entryY=0.228;entryDx=0;entryDy=0;entryPerimeter=0;" parent="1" source="z2_gmYMCOCfwrX77VKX7-143" target="z2_gmYMCOCfwrX77VKX7-133" edge="1">
          <mxGeometry relative="1" as="geometry" />
        </mxCell>
        <mxCell id="z2_gmYMCOCfwrX77VKX7-153" value="Input²" style="edgeStyle=orthogonalEdgeStyle;rounded=0;orthogonalLoop=1;jettySize=auto;html=1;entryX=0;entryY=0.25;entryDx=0;entryDy=0;labelPosition=center;verticalLabelPosition=top;align=center;verticalAlign=bottom;" parent="1" source="z2_gmYMCOCfwrX77VKX7-155" target="z2_gmYMCOCfwrX77VKX7-162" edge="1">
          <mxGeometry x="-0.7426" relative="1" as="geometry">
            <mxPoint as="offset" />
          </mxGeometry>
        </mxCell>
        <mxCell id="z2_gmYMCOCfwrX77VKX7-154" style="edgeStyle=orthogonalEdgeStyle;rounded=0;orthogonalLoop=1;jettySize=auto;html=1;entryX=0;entryY=0.25;entryDx=0;entryDy=0;" parent="1" source="z2_gmYMCOCfwrX77VKX7-155" target="z2_gmYMCOCfwrX77VKX7-160" edge="1">
          <mxGeometry relative="1" as="geometry" />
        </mxCell>
        <mxCell id="z2_gmYMCOCfwrX77VKX7-155" value="Blakely Mult" style="rounded=0;whiteSpace=wrap;html=1;fontSize=14;align=center;labelPosition=center;verticalLabelPosition=top;verticalAlign=bottom;" parent="1" vertex="1">
          <mxGeometry x="670" y="2110" width="120" height="60" as="geometry" />
        </mxCell>
        <mxCell id="z2_gmYMCOCfwrX77VKX7-156" value="Input²" style="edgeStyle=orthogonalEdgeStyle;rounded=0;orthogonalLoop=1;jettySize=auto;html=1;entryX=0;entryY=0.75;entryDx=0;entryDy=0;labelPosition=center;verticalLabelPosition=top;align=center;verticalAlign=bottom;" parent="1" target="z2_gmYMCOCfwrX77VKX7-160" edge="1">
          <mxGeometry x="0.4946" y="-1" relative="1" as="geometry">
            <mxPoint x="-1" y="-1" as="offset" />
            <mxPoint x="800" y="2281" as="sourcePoint" />
          </mxGeometry>
        </mxCell>
        <mxCell id="z2_gmYMCOCfwrX77VKX7-157" style="edgeStyle=orthogonalEdgeStyle;rounded=0;orthogonalLoop=1;jettySize=auto;html=1;entryX=0;entryY=0.25;entryDx=0;entryDy=0;" parent="1" target="z2_gmYMCOCfwrX77VKX7-263" edge="1">
          <mxGeometry relative="1" as="geometry">
            <mxPoint x="810" y="2140" as="sourcePoint" />
            <Array as="points">
              <mxPoint x="800" y="2141" />
              <mxPoint x="800" y="2335" />
            </Array>
          </mxGeometry>
        </mxCell>
        <mxCell id="z2_gmYMCOCfwrX77VKX7-159" value="Input⁴" style="edgeStyle=orthogonalEdgeStyle;rounded=0;orthogonalLoop=1;jettySize=auto;html=1;entryX=0;entryY=0.75;entryDx=0;entryDy=0;labelPosition=center;verticalLabelPosition=top;align=center;verticalAlign=bottom;" parent="1" source="z2_gmYMCOCfwrX77VKX7-160" target="z2_gmYMCOCfwrX77VKX7-162" edge="1">
          <mxGeometry x="0.459" relative="1" as="geometry">
            <mxPoint as="offset" />
          </mxGeometry>
        </mxCell>
        <mxCell id="z2_gmYMCOCfwrX77VKX7-160" value="Blakely Mult" style="rounded=0;whiteSpace=wrap;html=1;fontSize=14;align=center;labelPosition=center;verticalLabelPosition=top;verticalAlign=bottom;" parent="1" vertex="1">
          <mxGeometry x="860" y="2180" width="120" height="60" as="geometry" />
        </mxCell>
        <mxCell id="z2_gmYMCOCfwrX77VKX7-161" value="Output⁶" style="edgeStyle=orthogonalEdgeStyle;rounded=0;orthogonalLoop=1;jettySize=auto;html=1;labelPosition=center;verticalLabelPosition=top;align=center;verticalAlign=bottom;fontSize=23;" parent="1" source="z2_gmYMCOCfwrX77VKX7-162" edge="1">
          <mxGeometry relative="1" as="geometry">
            <mxPoint x="1340" y="2140" as="targetPoint" />
          </mxGeometry>
        </mxCell>
        <mxCell id="z2_gmYMCOCfwrX77VKX7-162" value="Blakely Mult" style="rounded=0;whiteSpace=wrap;html=1;fontSize=14;align=center;labelPosition=center;verticalLabelPosition=top;verticalAlign=bottom;" parent="1" vertex="1">
          <mxGeometry x="1047" y="2110" width="120" height="60" as="geometry" />
        </mxCell>
        <mxCell id="z2_gmYMCOCfwrX77VKX7-163" value="Input" style="endArrow=classic;html=1;rounded=0;entryX=0;entryY=0.5;entryDx=0;entryDy=0;labelPosition=center;verticalLabelPosition=top;align=center;verticalAlign=bottom;fontSize=20;" parent="1" target="z2_gmYMCOCfwrX77VKX7-167" edge="1">
          <mxGeometry width="50" height="50" relative="1" as="geometry">
            <mxPoint x="350" y="2129.71" as="sourcePoint" />
            <mxPoint x="500" y="2129.71" as="targetPoint" />
          </mxGeometry>
        </mxCell>
        <mxCell id="z2_gmYMCOCfwrX77VKX7-164" style="edgeStyle=orthogonalEdgeStyle;rounded=0;orthogonalLoop=1;jettySize=auto;html=1;entryX=0;entryY=0.75;entryDx=0;entryDy=0;" parent="1" source="z2_gmYMCOCfwrX77VKX7-167" target="z2_gmYMCOCfwrX77VKX7-155" edge="1">
          <mxGeometry relative="1" as="geometry" />
        </mxCell>
        <mxCell id="z2_gmYMCOCfwrX77VKX7-167" value="Input" style="shape=parallelogram;html=1;strokeWidth=2;perimeter=parallelogramPerimeter;whiteSpace=wrap;rounded=1;arcSize=12;size=0.23;" parent="1" vertex="1">
          <mxGeometry x="562.5" y="2110" width="50" height="40" as="geometry" />
        </mxCell>
        <mxCell id="z2_gmYMCOCfwrX77VKX7-168" style="edgeStyle=orthogonalEdgeStyle;rounded=0;orthogonalLoop=1;jettySize=auto;html=1;entryX=0.004;entryY=0.331;entryDx=0;entryDy=0;entryPerimeter=0;" parent="1" source="z2_gmYMCOCfwrX77VKX7-167" target="z2_gmYMCOCfwrX77VKX7-155" edge="1">
          <mxGeometry relative="1" as="geometry" />
        </mxCell>
        <mxCell id="z2_gmYMCOCfwrX77VKX7-169" value="Mod" style="endArrow=classic;html=1;rounded=0;entryX=-0.004;entryY=0.557;entryDx=0;entryDy=0;entryPerimeter=0;labelPosition=center;verticalLabelPosition=top;align=center;verticalAlign=bottom;fontSize=17;" parent="1" target="z2_gmYMCOCfwrX77VKX7-1" edge="1">
          <mxGeometry width="50" height="50" relative="1" as="geometry">
            <mxPoint x="380" y="2260" as="sourcePoint" />
            <mxPoint x="430" y="2210" as="targetPoint" />
          </mxGeometry>
        </mxCell>
        <mxCell id="z2_gmYMCOCfwrX77VKX7-170" value="&amp;nbsp;" style="text;whiteSpace=wrap;html=1;" parent="1" vertex="1">
          <mxGeometry x="110" y="1550" width="40" height="40" as="geometry" />
        </mxCell>
        <mxCell id="z2_gmYMCOCfwrX77VKX7-171" style="edgeStyle=orthogonalEdgeStyle;rounded=0;orthogonalLoop=1;jettySize=auto;html=1;exitX=1;exitY=0.606;exitDx=0;exitDy=0;exitPerimeter=0;" parent="1" source="z2_gmYMCOCfwrX77VKX7-172" edge="1">
          <mxGeometry relative="1" as="geometry">
            <mxPoint x="3361" y="1620" as="targetPoint" />
            <Array as="points">
              <mxPoint x="3306" y="1620" />
              <mxPoint x="3361" y="1620" />
            </Array>
          </mxGeometry>
        </mxCell>
        <mxCell id="z2_gmYMCOCfwrX77VKX7-172" value="" style="rounded=1;whiteSpace=wrap;html=1;absoluteArcSize=1;arcSize=14;strokeWidth=2;movable=0;resizable=0;rotatable=0;deletable=0;editable=0;locked=1;connectable=0;" parent="1" vertex="1">
          <mxGeometry x="1881" y="1190" width="1370" height="1030" as="geometry" />
        </mxCell>
        <mxCell id="z2_gmYMCOCfwrX77VKX7-173" value="" style="edgeStyle=none;orthogonalLoop=1;jettySize=auto;html=1;rounded=0;" parent="1" edge="1">
          <mxGeometry width="100" relative="1" as="geometry">
            <mxPoint x="1761" y="1350" as="sourcePoint" />
            <mxPoint x="1880" y="1350" as="targetPoint" />
            <Array as="points" />
          </mxGeometry>
        </mxCell>
        <mxCell id="z2_gmYMCOCfwrX77VKX7-174" value="" style="edgeStyle=none;orthogonalLoop=1;jettySize=auto;html=1;rounded=0;entryX=0.001;entryY=0.37;entryDx=0;entryDy=0;entryPerimeter=0;" parent="1" edge="1">
          <mxGeometry width="100" relative="1" as="geometry">
            <mxPoint x="1761" y="1434" as="sourcePoint" />
            <mxPoint x="1882" y="1432" as="targetPoint" />
            <Array as="points" />
          </mxGeometry>
        </mxCell>
        <mxCell id="z2_gmYMCOCfwrX77VKX7-175" value="" style="edgeStyle=none;orthogonalLoop=1;jettySize=auto;html=1;rounded=0;entryX=0.001;entryY=0.37;entryDx=0;entryDy=0;entryPerimeter=0;" parent="1" edge="1">
          <mxGeometry width="100" relative="1" as="geometry">
            <mxPoint x="1760" y="1551.93" as="sourcePoint" />
            <mxPoint x="1881" y="1549.93" as="targetPoint" />
            <Array as="points" />
          </mxGeometry>
        </mxCell>
        <mxCell id="z2_gmYMCOCfwrX77VKX7-176" value="a" style="text;html=1;align=center;verticalAlign=middle;resizable=0;points=[];autosize=1;strokeColor=none;fillColor=none;" parent="1" vertex="1">
          <mxGeometry x="1811" y="1320" width="30" height="30" as="geometry" />
        </mxCell>
        <mxCell id="z2_gmYMCOCfwrX77VKX7-177" value="b" style="text;html=1;align=center;verticalAlign=middle;resizable=0;points=[];autosize=1;strokeColor=none;fillColor=none;" parent="1" vertex="1">
          <mxGeometry x="1802" y="1400" width="30" height="30" as="geometry" />
        </mxCell>
        <mxCell id="z2_gmYMCOCfwrX77VKX7-178" value="n" style="text;html=1;align=center;verticalAlign=middle;resizable=0;points=[];autosize=1;strokeColor=none;fillColor=none;" parent="1" vertex="1">
          <mxGeometry x="1801" y="1519.93" width="30" height="30" as="geometry" />
        </mxCell>
        <mxCell id="z2_gmYMCOCfwrX77VKX7-179" value="" style="edgeStyle=none;orthogonalLoop=1;jettySize=auto;html=1;rounded=0;exitX=0.999;exitY=0.214;exitDx=0;exitDy=0;exitPerimeter=0;" parent="1" source="z2_gmYMCOCfwrX77VKX7-172" edge="1">
          <mxGeometry width="100" relative="1" as="geometry">
            <mxPoint x="2942" y="1120" as="sourcePoint" />
            <mxPoint x="3331" y="1411" as="targetPoint" />
            <Array as="points" />
          </mxGeometry>
        </mxCell>
        <mxCell id="z2_gmYMCOCfwrX77VKX7-180" value="R" style="text;html=1;align=center;verticalAlign=middle;resizable=0;points=[];autosize=1;strokeColor=none;fillColor=none;" parent="1" vertex="1">
          <mxGeometry x="3271" y="1370" width="30" height="30" as="geometry" />
        </mxCell>
        <mxCell id="z2_gmYMCOCfwrX77VKX7-181" value="" style="edgeStyle=orthogonalEdgeStyle;rounded=0;orthogonalLoop=1;jettySize=auto;html=1;" parent="1" target="z2_gmYMCOCfwrX77VKX7-182" edge="1">
          <mxGeometry relative="1" as="geometry">
            <mxPoint x="2155.89" y="1650" as="sourcePoint" />
            <Array as="points">
              <mxPoint x="2155.89" y="1630" />
              <mxPoint x="2155.89" y="1630" />
            </Array>
          </mxGeometry>
        </mxCell>
        <mxCell id="z2_gmYMCOCfwrX77VKX7-182" value="R" style="shape=parallelogram;html=1;strokeWidth=2;perimeter=parallelogramPerimeter;whiteSpace=wrap;rounded=1;arcSize=12;size=0.23;" parent="1" vertex="1">
          <mxGeometry x="2130.89" y="1670" width="50" height="40" as="geometry" />
        </mxCell>
        <mxCell id="z2_gmYMCOCfwrX77VKX7-183" value="a" style="shape=parallelogram;html=1;strokeWidth=2;perimeter=parallelogramPerimeter;whiteSpace=wrap;rounded=1;arcSize=12;size=0.23;" parent="1" vertex="1">
          <mxGeometry x="2950.5" y="1230" width="50" height="40" as="geometry" />
        </mxCell>
        <mxCell id="z2_gmYMCOCfwrX77VKX7-184" style="edgeStyle=orthogonalEdgeStyle;rounded=0;orthogonalLoop=1;jettySize=auto;html=1;exitX=1;exitY=0.5;exitDx=0;exitDy=0;entryX=1;entryY=0.5;entryDx=0;entryDy=0;" parent="1" target="z2_gmYMCOCfwrX77VKX7-186" edge="1">
          <mxGeometry relative="1" as="geometry">
            <mxPoint x="2820" y="1280.1666666666667" as="sourcePoint" />
          </mxGeometry>
        </mxCell>
        <mxCell id="z2_gmYMCOCfwrX77VKX7-185" style="edgeStyle=orthogonalEdgeStyle;rounded=0;orthogonalLoop=1;jettySize=auto;html=1;entryX=0;entryY=0;entryDx=0;entryDy=0;" parent="1" target="z2_gmYMCOCfwrX77VKX7-186" edge="1">
          <mxGeometry relative="1" as="geometry">
            <mxPoint x="1880" y="1430" as="sourcePoint" />
            <Array as="points">
              <mxPoint x="1960" y="1430" />
              <mxPoint x="1960" y="1280" />
              <mxPoint x="2660" y="1280" />
              <mxPoint x="2660" y="1268" />
            </Array>
          </mxGeometry>
        </mxCell>
        <mxCell id="z2_gmYMCOCfwrX77VKX7-186" value="b" style="shape=parallelogram;html=1;strokeWidth=2;perimeter=parallelogramPerimeter;whiteSpace=wrap;rounded=1;arcSize=12;size=0.23;" parent="1" vertex="1">
          <mxGeometry x="2711" y="1260" width="50" height="40" as="geometry" />
        </mxCell>
        <mxCell id="z2_gmYMCOCfwrX77VKX7-187" style="edgeStyle=orthogonalEdgeStyle;rounded=0;orthogonalLoop=1;jettySize=auto;html=1;exitX=1;exitY=0.5;exitDx=0;exitDy=0;entryX=0.25;entryY=0;entryDx=0;entryDy=0;" parent="1" source="z2_gmYMCOCfwrX77VKX7-188" target="z2_gmYMCOCfwrX77VKX7-233" edge="1">
          <mxGeometry relative="1" as="geometry">
            <mxPoint x="2540" y="1839.8620689655172" as="targetPoint" />
            <Array as="points">
              <mxPoint x="2560" y="1840" />
              <mxPoint x="2560" y="1855" />
            </Array>
          </mxGeometry>
        </mxCell>
        <mxCell id="z2_gmYMCOCfwrX77VKX7-188" value="n" style="shape=parallelogram;html=1;strokeWidth=2;perimeter=parallelogramPerimeter;whiteSpace=wrap;rounded=1;arcSize=12;size=0.23;" parent="1" vertex="1">
          <mxGeometry x="2460.5" y="1820" width="50" height="40" as="geometry" />
        </mxCell>
        <mxCell id="z2_gmYMCOCfwrX77VKX7-189" value="" style="edgeStyle=none;orthogonalLoop=1;jettySize=auto;html=1;rounded=0;entryX=0;entryY=0.5;entryDx=0;entryDy=0;exitX=0.001;exitY=0.156;exitDx=0;exitDy=0;exitPerimeter=0;" parent="1" source="z2_gmYMCOCfwrX77VKX7-172" target="z2_gmYMCOCfwrX77VKX7-183" edge="1">
          <mxGeometry width="100" relative="1" as="geometry">
            <mxPoint x="2282" y="1090" as="sourcePoint" />
            <mxPoint x="2272" y="1030" as="targetPoint" />
            <Array as="points">
              <mxPoint x="1911" y="1350" />
              <mxPoint x="1911" y="1250" />
            </Array>
          </mxGeometry>
        </mxCell>
        <mxCell id="z2_gmYMCOCfwrX77VKX7-190" value="" style="edgeStyle=none;orthogonalLoop=1;jettySize=auto;html=1;rounded=0;entryX=0;entryY=0.5;entryDx=0;entryDy=0;exitX=0.001;exitY=0.349;exitDx=0;exitDy=0;exitPerimeter=0;" parent="1" source="z2_gmYMCOCfwrX77VKX7-172" target="z2_gmYMCOCfwrX77VKX7-188" edge="1">
          <mxGeometry width="100" relative="1" as="geometry">
            <mxPoint x="2292" y="1140" as="sourcePoint" />
            <mxPoint x="2388" y="1140" as="targetPoint" />
            <Array as="points">
              <mxPoint x="1951" y="1550" />
              <mxPoint x="1951" y="1840" />
            </Array>
          </mxGeometry>
        </mxCell>
        <mxCell id="z2_gmYMCOCfwrX77VKX7-191" value="Blakley Multiplication" style="text;html=1;align=center;verticalAlign=middle;resizable=0;points=[];autosize=1;strokeColor=none;fillColor=none;" parent="1" vertex="1">
          <mxGeometry x="2505.89" y="1160" width="130" height="30" as="geometry" />
        </mxCell>
        <mxCell id="z2_gmYMCOCfwrX77VKX7-192" style="edgeStyle=orthogonalEdgeStyle;rounded=0;orthogonalLoop=1;jettySize=auto;html=1;exitX=0;exitY=0.75;exitDx=0;exitDy=0;entryX=0;entryY=0.75;entryDx=0;entryDy=0;" parent="1" target="z2_gmYMCOCfwrX77VKX7-193" edge="1">
          <mxGeometry relative="1" as="geometry">
            <mxPoint x="2391" y="1440" as="sourcePoint" />
            <Array as="points">
              <mxPoint x="2392" y="1440" />
              <mxPoint x="2392" y="1480" />
              <mxPoint x="2531" y="1480" />
              <mxPoint x="2531" y="1391" />
            </Array>
          </mxGeometry>
        </mxCell>
        <mxCell id="z2_gmYMCOCfwrX77VKX7-193" value="Mux" style="shape=step;perimeter=stepPerimeter;whiteSpace=wrap;html=1;fixedSize=1;" parent="1" vertex="1">
          <mxGeometry x="2537" y="1334.93" width="120" height="80" as="geometry" />
        </mxCell>
        <mxCell id="z2_gmYMCOCfwrX77VKX7-194" style="edgeStyle=orthogonalEdgeStyle;rounded=0;orthogonalLoop=1;jettySize=auto;html=1;entryX=0;entryY=0.5;entryDx=0;entryDy=0;exitX=1;exitY=0.5;exitDx=0;exitDy=0;" parent="1" source="z2_gmYMCOCfwrX77VKX7-193" target="z2_gmYMCOCfwrX77VKX7-198" edge="1">
          <mxGeometry relative="1" as="geometry">
            <mxPoint x="2340.89" y="1419.93" as="targetPoint" />
            <Array as="points">
              <mxPoint x="2661" y="1375" />
              <mxPoint x="2661" y="1320" />
              <mxPoint x="2111" y="1320" />
              <mxPoint x="2111" y="1530" />
            </Array>
          </mxGeometry>
        </mxCell>
        <mxCell id="z2_gmYMCOCfwrX77VKX7-195" style="edgeStyle=orthogonalEdgeStyle;rounded=0;orthogonalLoop=1;jettySize=auto;html=1;exitX=0.5;exitY=1;exitDx=0;exitDy=0;entryX=0;entryY=0.25;entryDx=0;entryDy=0;" parent="1" source="z2_gmYMCOCfwrX77VKX7-196" target="z2_gmYMCOCfwrX77VKX7-193" edge="1">
          <mxGeometry relative="1" as="geometry">
            <Array as="points">
              <mxPoint x="2521" y="1417" />
              <mxPoint x="2521" y="1359" />
            </Array>
          </mxGeometry>
        </mxCell>
        <mxCell id="z2_gmYMCOCfwrX77VKX7-196" value="adder" style="verticalLabelPosition=middle;verticalAlign=middle;html=1;shape=trapezoid;perimeter=trapezoidPerimeter;whiteSpace=wrap;size=0.23;arcSize=10;flipV=1;labelPosition=center;align=center;rotation=-90;" parent="1" vertex="1">
          <mxGeometry x="2430.89" y="1386.93" width="100" height="60" as="geometry" />
        </mxCell>
        <mxCell id="z2_gmYMCOCfwrX77VKX7-197" style="edgeStyle=orthogonalEdgeStyle;rounded=0;orthogonalLoop=1;jettySize=auto;html=1;exitX=1;exitY=0.5;exitDx=0;exitDy=0;entryX=0;entryY=0.25;entryDx=0;entryDy=0;" parent="1" source="z2_gmYMCOCfwrX77VKX7-198" target="z2_gmYMCOCfwrX77VKX7-205" edge="1">
          <mxGeometry relative="1" as="geometry">
            <mxPoint x="2240.89" y="1629.93" as="targetPoint" />
            <Array as="points">
              <mxPoint x="2311" y="1530" />
              <mxPoint x="2311" y="1527" />
            </Array>
          </mxGeometry>
        </mxCell>
        <mxCell id="z2_gmYMCOCfwrX77VKX7-198" value="i" style="shape=parallelogram;html=1;strokeWidth=2;perimeter=parallelogramPerimeter;whiteSpace=wrap;rounded=1;arcSize=12;size=0.23;" parent="1" vertex="1">
          <mxGeometry x="2130.89" y="1509.93" width="50" height="40" as="geometry" />
        </mxCell>
        <mxCell id="z2_gmYMCOCfwrX77VKX7-199" style="edgeStyle=orthogonalEdgeStyle;rounded=0;orthogonalLoop=1;jettySize=auto;html=1;entryX=0.75;entryY=0;entryDx=0;entryDy=0;" parent="1" target="z2_gmYMCOCfwrX77VKX7-196" edge="1">
          <mxGeometry relative="1" as="geometry">
            <mxPoint x="2380.89" y="1391.93" as="sourcePoint" />
            <mxPoint x="2444.89" y="1386.93" as="targetPoint" />
            <Array as="points">
              <mxPoint x="2380.89" y="1391.93" />
            </Array>
          </mxGeometry>
        </mxCell>
        <mxCell id="z2_gmYMCOCfwrX77VKX7-200" value="1" style="text;html=1;align=center;verticalAlign=middle;resizable=0;points=[];autosize=1;strokeColor=none;fillColor=none;" parent="1" vertex="1">
          <mxGeometry x="2400.89" y="1359.93" width="30" height="30" as="geometry" />
        </mxCell>
        <mxCell id="z2_gmYMCOCfwrX77VKX7-201" style="edgeStyle=orthogonalEdgeStyle;rounded=0;orthogonalLoop=1;jettySize=auto;html=1;entryX=0.264;entryY=1.002;entryDx=0;entryDy=0;entryPerimeter=0;" parent="1" target="z2_gmYMCOCfwrX77VKX7-196" edge="1">
          <mxGeometry relative="1" as="geometry">
            <mxPoint x="2210.89" y="1529.93" as="sourcePoint" />
            <mxPoint x="2450.89" y="1439.93" as="targetPoint" />
            <Array as="points">
              <mxPoint x="2211" y="1440" />
              <mxPoint x="2451" y="1440" />
            </Array>
          </mxGeometry>
        </mxCell>
        <mxCell id="z2_gmYMCOCfwrX77VKX7-202" style="edgeStyle=orthogonalEdgeStyle;rounded=0;orthogonalLoop=1;jettySize=auto;html=1;exitX=1;exitY=0.5;exitDx=0;exitDy=0;entryX=0.5;entryY=1;entryDx=0;entryDy=0;" parent="1" source="z2_gmYMCOCfwrX77VKX7-205" target="z2_gmYMCOCfwrX77VKX7-193" edge="1">
          <mxGeometry relative="1" as="geometry">
            <mxPoint x="2561.2099999999996" y="1534.89" as="sourcePoint" />
            <Array as="points">
              <mxPoint x="2597" y="1535" />
            </Array>
          </mxGeometry>
        </mxCell>
        <mxCell id="z2_gmYMCOCfwrX77VKX7-203" value="i" style="text;html=1;align=center;verticalAlign=middle;resizable=0;points=[];autosize=1;strokeColor=none;fillColor=none;" parent="1" vertex="1">
          <mxGeometry x="2400.89" y="1409.93" width="30" height="30" as="geometry" />
        </mxCell>
        <mxCell id="z2_gmYMCOCfwrX77VKX7-204" value="I_sel" style="text;html=1;align=center;verticalAlign=middle;resizable=0;points=[];autosize=1;strokeColor=none;fillColor=none;rotation=90;" parent="1" vertex="1">
          <mxGeometry x="2585.89" y="1446.93" width="50" height="30" as="geometry" />
        </mxCell>
        <mxCell id="z2_gmYMCOCfwrX77VKX7-205" value="LUT (=)" style="rounded=1;whiteSpace=wrap;html=1;absoluteArcSize=1;arcSize=14;strokeWidth=2;" parent="1" vertex="1">
          <mxGeometry x="2430.89" y="1519.93" width="100" height="30" as="geometry" />
        </mxCell>
        <mxCell id="z2_gmYMCOCfwrX77VKX7-206" value="" style="edgeStyle=none;orthogonalLoop=1;jettySize=auto;html=1;rounded=0;" parent="1" edge="1">
          <mxGeometry width="100" relative="1" as="geometry">
            <mxPoint x="2380.89" y="1539.93" as="sourcePoint" />
            <mxPoint x="2430.89" y="1539.93" as="targetPoint" />
            <Array as="points" />
          </mxGeometry>
        </mxCell>
        <mxCell id="z2_gmYMCOCfwrX77VKX7-207" value="256" style="text;html=1;align=center;verticalAlign=middle;resizable=0;points=[];autosize=1;strokeColor=none;fillColor=none;" parent="1" vertex="1">
          <mxGeometry x="2380.89" y="1530" width="40" height="30" as="geometry" />
        </mxCell>
        <mxCell id="z2_gmYMCOCfwrX77VKX7-208" style="edgeStyle=orthogonalEdgeStyle;rounded=0;orthogonalLoop=1;jettySize=auto;html=1;entryX=0.25;entryY=0;entryDx=0;entryDy=0;" parent="1" source="z2_gmYMCOCfwrX77VKX7-209" target="z2_gmYMCOCfwrX77VKX7-231" edge="1">
          <mxGeometry relative="1" as="geometry" />
        </mxCell>
        <mxCell id="z2_gmYMCOCfwrX77VKX7-209" value="Shift Left" style="strokeWidth=2;html=1;shape=mxgraph.flowchart.start_2;whiteSpace=wrap;" parent="1" vertex="1">
          <mxGeometry x="2250.39" y="1719.9299999999998" width="80" height="80.07" as="geometry" />
        </mxCell>
        <mxCell id="z2_gmYMCOCfwrX77VKX7-210" value="Reset" style="text;html=1;align=center;verticalAlign=middle;resizable=0;points=[];autosize=1;strokeColor=none;fillColor=none;rotation=90;" parent="1" vertex="1">
          <mxGeometry x="2149.89" y="1630" width="50" height="30" as="geometry" />
        </mxCell>
        <mxCell id="z2_gmYMCOCfwrX77VKX7-211" value="" style="edgeStyle=orthogonalEdgeStyle;rounded=0;orthogonalLoop=1;jettySize=auto;html=1;" parent="1" edge="1">
          <mxGeometry relative="1" as="geometry">
            <mxPoint x="2158.89" y="1490" as="sourcePoint" />
            <mxPoint x="2158.89" y="1510" as="targetPoint" />
            <Array as="points">
              <mxPoint x="2158.89" y="1470" />
              <mxPoint x="2158.89" y="1470" />
            </Array>
          </mxGeometry>
        </mxCell>
        <mxCell id="z2_gmYMCOCfwrX77VKX7-212" value="Reset (=1)" style="text;html=1;align=center;verticalAlign=middle;resizable=0;points=[];autosize=1;strokeColor=none;fillColor=none;rotation=90;" parent="1" vertex="1">
          <mxGeometry x="2140" y="1459.97" width="80" height="30" as="geometry" />
        </mxCell>
        <mxCell id="z2_gmYMCOCfwrX77VKX7-213" style="edgeStyle=orthogonalEdgeStyle;rounded=0;orthogonalLoop=1;jettySize=auto;html=1;exitX=0.5;exitY=1;exitDx=0;exitDy=0;entryX=0.041;entryY=0.306;entryDx=0;entryDy=0;entryPerimeter=0;" parent="1" source="z2_gmYMCOCfwrX77VKX7-182" target="z2_gmYMCOCfwrX77VKX7-209" edge="1">
          <mxGeometry relative="1" as="geometry">
            <Array as="points">
              <mxPoint x="2156.39" y="1744" />
              <mxPoint x="2253.39" y="1744" />
            </Array>
          </mxGeometry>
        </mxCell>
        <mxCell id="z2_gmYMCOCfwrX77VKX7-214" value="1" style="text;html=1;align=center;verticalAlign=middle;whiteSpace=wrap;rounded=0;" parent="1" vertex="1">
          <mxGeometry x="2199.89" y="1760" width="55" height="30" as="geometry" />
        </mxCell>
        <mxCell id="z2_gmYMCOCfwrX77VKX7-215" style="edgeStyle=orthogonalEdgeStyle;rounded=0;orthogonalLoop=1;jettySize=auto;html=1;entryX=0.5;entryY=1;entryDx=0;entryDy=0;" parent="1" target="z2_gmYMCOCfwrX77VKX7-228" edge="1">
          <mxGeometry relative="1" as="geometry">
            <mxPoint x="3012.6" y="1508.3198499999999" as="targetPoint" />
            <Array as="points">
              <mxPoint x="2941" y="1380" />
              <mxPoint x="2941" y="1545" />
              <mxPoint x="3061" y="1545" />
            </Array>
            <mxPoint x="2730" y="1380" as="sourcePoint" />
          </mxGeometry>
        </mxCell>
        <mxCell id="z2_gmYMCOCfwrX77VKX7-216" style="edgeStyle=orthogonalEdgeStyle;rounded=0;orthogonalLoop=1;jettySize=auto;html=1;exitX=0.145;exitY=0.855;exitDx=0;exitDy=0;exitPerimeter=0;entryX=0.145;entryY=0.855;entryDx=0;entryDy=0;entryPerimeter=0;" parent="1" target="z2_gmYMCOCfwrX77VKX7-218" edge="1">
          <mxGeometry relative="1" as="geometry">
            <mxPoint x="2720" y="1528.3650793650795" as="sourcePoint" />
          </mxGeometry>
        </mxCell>
        <mxCell id="z2_gmYMCOCfwrX77VKX7-217" style="edgeStyle=orthogonalEdgeStyle;rounded=0;orthogonalLoop=1;jettySize=auto;html=1;exitX=1;exitY=0.5;exitDx=0;exitDy=0;exitPerimeter=0;entryX=0;entryY=0.75;entryDx=0;entryDy=0;jumpStyle=arc;" parent="1" source="z2_gmYMCOCfwrX77VKX7-218" target="z2_gmYMCOCfwrX77VKX7-186" edge="1">
          <mxGeometry relative="1" as="geometry">
            <Array as="points">
              <mxPoint x="2860" y="1500" />
              <mxPoint x="2860" y="1570" />
              <mxPoint x="2700" y="1570" />
              <mxPoint x="2700" y="1289" />
              <mxPoint x="2714" y="1289" />
            </Array>
          </mxGeometry>
        </mxCell>
        <mxCell id="z2_gmYMCOCfwrX77VKX7-218" value="Shift left" style="strokeWidth=2;html=1;shape=mxgraph.flowchart.start_2;whiteSpace=wrap;" parent="1" vertex="1">
          <mxGeometry x="2751" y="1459.9699999999998" width="80" height="80.07" as="geometry" />
        </mxCell>
        <mxCell id="z2_gmYMCOCfwrX77VKX7-219" style="edgeStyle=orthogonalEdgeStyle;rounded=0;orthogonalLoop=1;jettySize=auto;html=1;entryX=0.145;entryY=0.145;entryDx=0;entryDy=0;entryPerimeter=0;" parent="1" source="z2_gmYMCOCfwrX77VKX7-186" target="z2_gmYMCOCfwrX77VKX7-218" edge="1">
          <mxGeometry relative="1" as="geometry">
            <Array as="points">
              <mxPoint x="2731" y="1472" />
            </Array>
          </mxGeometry>
        </mxCell>
        <mxCell id="z2_gmYMCOCfwrX77VKX7-220" style="edgeStyle=orthogonalEdgeStyle;rounded=0;orthogonalLoop=1;jettySize=auto;html=1;entryX=0.145;entryY=0.855;entryDx=0;entryDy=0;entryPerimeter=0;" parent="1" target="z2_gmYMCOCfwrX77VKX7-209" edge="1">
          <mxGeometry relative="1" as="geometry">
            <mxPoint x="2210.89" y="1790" as="sourcePoint" />
            <Array as="points">
              <mxPoint x="2210.89" y="1788" />
            </Array>
          </mxGeometry>
        </mxCell>
        <mxCell id="z2_gmYMCOCfwrX77VKX7-221" value="Result[0]" style="text;html=1;align=center;verticalAlign=middle;whiteSpace=wrap;rounded=0;" parent="1" vertex="1">
          <mxGeometry x="2971.0000000000005" y="1539.9988888888888" width="60" height="30" as="geometry" />
        </mxCell>
        <mxCell id="z2_gmYMCOCfwrX77VKX7-222" style="edgeStyle=orthogonalEdgeStyle;rounded=0;orthogonalLoop=1;jettySize=auto;html=1;entryX=0;entryY=0.25;entryDx=0;entryDy=0;" parent="1" source="z2_gmYMCOCfwrX77VKX7-183" target="z2_gmYMCOCfwrX77VKX7-228" edge="1">
          <mxGeometry relative="1" as="geometry">
            <mxPoint x="3012.6" y="1451.47015" as="targetPoint" />
            <Array as="points">
              <mxPoint x="2971" y="1470" />
              <mxPoint x="3012" y="1470" />
            </Array>
          </mxGeometry>
        </mxCell>
        <mxCell id="z2_gmYMCOCfwrX77VKX7-223" value="Blakley_Re&lt;span style=&quot;background-color: initial;&quot;&gt;sult_Ready&lt;/span&gt;" style="text;html=1;align=center;verticalAlign=middle;whiteSpace=wrap;rounded=0;" parent="1" vertex="1">
          <mxGeometry x="3291" y="1620" width="60" height="30" as="geometry" />
        </mxCell>
        <mxCell id="z2_gmYMCOCfwrX77VKX7-224" value="" style="endArrow=classic;html=1;rounded=0;entryX=1.001;entryY=0.418;entryDx=0;entryDy=0;entryPerimeter=0;" parent="1" target="z2_gmYMCOCfwrX77VKX7-172" edge="1">
          <mxGeometry width="50" height="50" relative="1" as="geometry">
            <mxPoint x="3181" y="1620" as="sourcePoint" />
            <mxPoint x="3251" y="1670" as="targetPoint" />
            <Array as="points">
              <mxPoint x="3231" y="1620" />
            </Array>
          </mxGeometry>
        </mxCell>
        <mxCell id="z2_gmYMCOCfwrX77VKX7-225" value="I_sel" style="text;html=1;align=center;verticalAlign=middle;resizable=0;points=[];autosize=1;strokeColor=none;fillColor=none;" parent="1" vertex="1">
          <mxGeometry x="3181" y="1590" width="50" height="30" as="geometry" />
        </mxCell>
        <mxCell id="z2_gmYMCOCfwrX77VKX7-226" style="edgeStyle=orthogonalEdgeStyle;rounded=0;orthogonalLoop=1;jettySize=auto;html=1;entryX=0;entryY=0.75;entryDx=0;entryDy=0;" parent="1" target="z2_gmYMCOCfwrX77VKX7-228" edge="1">
          <mxGeometry relative="1" as="geometry">
            <mxPoint x="2971" y="1501" as="sourcePoint" />
          </mxGeometry>
        </mxCell>
        <mxCell id="z2_gmYMCOCfwrX77VKX7-227" style="edgeStyle=orthogonalEdgeStyle;rounded=0;orthogonalLoop=1;jettySize=auto;html=1;exitX=1;exitY=0.5;exitDx=0;exitDy=0;entryX=0.75;entryY=0;entryDx=0;entryDy=0;" parent="1" source="z2_gmYMCOCfwrX77VKX7-228" target="z2_gmYMCOCfwrX77VKX7-231" edge="1">
          <mxGeometry relative="1" as="geometry" />
        </mxCell>
        <mxCell id="z2_gmYMCOCfwrX77VKX7-228" value="Mux" style="shape=step;perimeter=stepPerimeter;whiteSpace=wrap;html=1;fixedSize=1;" parent="1" vertex="1">
          <mxGeometry x="3000.5" y="1445.04" width="120" height="80" as="geometry" />
        </mxCell>
        <mxCell id="z2_gmYMCOCfwrX77VKX7-229" value="0" style="text;html=1;align=center;verticalAlign=middle;whiteSpace=wrap;rounded=0;" parent="1" vertex="1">
          <mxGeometry x="2961" y="1479.9299999999998" width="60" height="30" as="geometry" />
        </mxCell>
        <mxCell id="z2_gmYMCOCfwrX77VKX7-230" style="edgeStyle=orthogonalEdgeStyle;rounded=0;orthogonalLoop=1;jettySize=auto;html=1;exitX=0.5;exitY=1;exitDx=0;exitDy=0;entryX=0.691;entryY=0.992;entryDx=0;entryDy=0;entryPerimeter=0;" parent="1" source="z2_gmYMCOCfwrX77VKX7-231" target="z2_gmYMCOCfwrX77VKX7-233" edge="1">
          <mxGeometry relative="1" as="geometry">
            <mxPoint x="2560.5" y="1722.5" as="targetPoint" />
            <Array as="points">
              <mxPoint x="2570" y="1730" />
              <mxPoint x="2570" y="1810" />
              <mxPoint x="2656" y="1810" />
            </Array>
          </mxGeometry>
        </mxCell>
        <mxCell id="z2_gmYMCOCfwrX77VKX7-231" value="adder" style="verticalLabelPosition=middle;verticalAlign=middle;html=1;shape=trapezoid;perimeter=trapezoidPerimeter;whiteSpace=wrap;size=0.23;arcSize=10;flipV=1;labelPosition=center;align=center;rotation=-90;" parent="1" vertex="1">
          <mxGeometry x="2410.5" y="1700" width="100" height="60" as="geometry" />
        </mxCell>
        <mxCell id="z2_gmYMCOCfwrX77VKX7-232" style="edgeStyle=orthogonalEdgeStyle;rounded=0;orthogonalLoop=1;jettySize=auto;html=1;exitX=0.5;exitY=1;exitDx=0;exitDy=0;entryX=0;entryY=0.5;entryDx=0;entryDy=0;" parent="1" source="z2_gmYMCOCfwrX77VKX7-233" target="z2_gmYMCOCfwrX77VKX7-235" edge="1">
          <mxGeometry relative="1" as="geometry">
            <Array as="points">
              <mxPoint x="2750" y="1830" />
              <mxPoint x="2750" y="1780" />
            </Array>
          </mxGeometry>
        </mxCell>
        <mxCell id="z2_gmYMCOCfwrX77VKX7-233" value="Sub" style="verticalLabelPosition=middle;verticalAlign=middle;html=1;shape=trapezoid;perimeter=trapezoidPerimeter;whiteSpace=wrap;size=0.23;arcSize=10;flipV=1;labelPosition=center;align=center;rotation=-90;" parent="1" vertex="1">
          <mxGeometry x="2635.89" y="1800" width="100" height="60" as="geometry" />
        </mxCell>
        <mxCell id="z2_gmYMCOCfwrX77VKX7-234" style="edgeStyle=orthogonalEdgeStyle;rounded=0;orthogonalLoop=1;jettySize=auto;html=1;entryX=0;entryY=0.25;entryDx=0;entryDy=0;" parent="1" target="z2_gmYMCOCfwrX77VKX7-235" edge="1">
          <mxGeometry relative="1" as="geometry">
            <mxPoint x="2570" y="1764" as="sourcePoint" />
            <Array as="points">
              <mxPoint x="2581" y="1764" />
            </Array>
          </mxGeometry>
        </mxCell>
        <mxCell id="z2_gmYMCOCfwrX77VKX7-235" value="Mux" style="shape=step;perimeter=stepPerimeter;whiteSpace=wrap;html=1;fixedSize=1;" parent="1" vertex="1">
          <mxGeometry x="2901" y="1740" width="120" height="80" as="geometry" />
        </mxCell>
        <mxCell id="z2_gmYMCOCfwrX77VKX7-236" style="edgeStyle=orthogonalEdgeStyle;rounded=0;orthogonalLoop=1;jettySize=auto;html=1;exitX=1;exitY=0.5;exitDx=0;exitDy=0;entryX=1;entryY=0.5;entryDx=0;entryDy=0;jumpStyle=arc;" parent="1" source="z2_gmYMCOCfwrX77VKX7-235" target="z2_gmYMCOCfwrX77VKX7-182" edge="1">
          <mxGeometry relative="1" as="geometry">
            <Array as="points">
              <mxPoint x="3191" y="1780" />
              <mxPoint x="3191" y="1670" />
              <mxPoint x="2201" y="1670" />
              <mxPoint x="2201" y="1690" />
            </Array>
            <mxPoint x="3171.5" y="1755" as="sourcePoint" />
          </mxGeometry>
        </mxCell>
        <mxCell id="z2_gmYMCOCfwrX77VKX7-237" value="" style="endArrow=classic;html=1;rounded=0;" parent="1" edge="1">
          <mxGeometry width="50" height="50" relative="1" as="geometry">
            <mxPoint x="3141" y="1410" as="sourcePoint" />
            <mxPoint x="3251" y="1410" as="targetPoint" />
          </mxGeometry>
        </mxCell>
        <mxCell id="z2_gmYMCOCfwrX77VKX7-238" value="R" style="text;html=1;align=center;verticalAlign=middle;resizable=0;points=[];autosize=1;strokeColor=none;fillColor=none;" parent="1" vertex="1">
          <mxGeometry x="3181" y="1379.93" width="30" height="30" as="geometry" />
        </mxCell>
        <mxCell id="z2_gmYMCOCfwrX77VKX7-239" style="edgeStyle=orthogonalEdgeStyle;rounded=0;orthogonalLoop=1;jettySize=auto;html=1;entryX=0.75;entryY=0;entryDx=0;entryDy=0;jumpStyle=arc;" parent="1" target="z2_gmYMCOCfwrX77VKX7-241" edge="1">
          <mxGeometry relative="1" as="geometry">
            <mxPoint x="2610" y="1810" as="sourcePoint" />
            <Array as="points">
              <mxPoint x="2610" y="1935" />
            </Array>
          </mxGeometry>
        </mxCell>
        <mxCell id="z2_gmYMCOCfwrX77VKX7-240" style="edgeStyle=orthogonalEdgeStyle;rounded=0;orthogonalLoop=1;jettySize=auto;html=1;exitX=0.5;exitY=1;exitDx=0;exitDy=0;entryX=0;entryY=0.75;entryDx=0;entryDy=0;" parent="1" source="z2_gmYMCOCfwrX77VKX7-241" target="z2_gmYMCOCfwrX77VKX7-235" edge="1">
          <mxGeometry relative="1" as="geometry">
            <Array as="points">
              <mxPoint x="2770" y="1960" />
              <mxPoint x="2770" y="1796" />
            </Array>
          </mxGeometry>
        </mxCell>
        <mxCell id="z2_gmYMCOCfwrX77VKX7-241" value="Sub" style="verticalLabelPosition=middle;verticalAlign=middle;html=1;shape=trapezoid;perimeter=trapezoidPerimeter;whiteSpace=wrap;size=0.23;arcSize=10;flipV=1;labelPosition=center;align=center;rotation=-90;" parent="1" vertex="1">
          <mxGeometry x="2635.89" y="1930" width="100" height="60" as="geometry" />
        </mxCell>
        <mxCell id="z2_gmYMCOCfwrX77VKX7-242" style="edgeStyle=orthogonalEdgeStyle;rounded=0;orthogonalLoop=1;jettySize=auto;html=1;exitX=0.145;exitY=0.145;exitDx=0;exitDy=0;exitPerimeter=0;entryX=0.145;entryY=0.145;entryDx=0;entryDy=0;entryPerimeter=0;" parent="1" target="z2_gmYMCOCfwrX77VKX7-244" edge="1">
          <mxGeometry relative="1" as="geometry">
            <mxPoint x="2530" y="1839.9999999999998" as="sourcePoint" />
            <Array as="points">
              <mxPoint x="2530" y="1881" />
              <mxPoint x="2470" y="1881" />
              <mxPoint x="2470" y="1932" />
            </Array>
          </mxGeometry>
        </mxCell>
        <mxCell id="z2_gmYMCOCfwrX77VKX7-243" style="edgeStyle=orthogonalEdgeStyle;rounded=0;orthogonalLoop=1;jettySize=auto;html=1;exitX=1;exitY=0.5;exitDx=0;exitDy=0;exitPerimeter=0;entryX=0.25;entryY=0;entryDx=0;entryDy=0;" parent="1" source="z2_gmYMCOCfwrX77VKX7-244" target="z2_gmYMCOCfwrX77VKX7-241" edge="1">
          <mxGeometry relative="1" as="geometry" />
        </mxCell>
        <mxCell id="z2_gmYMCOCfwrX77VKX7-244" value="Shift LEFT" style="strokeWidth=2;html=1;shape=mxgraph.flowchart.start_2;whiteSpace=wrap;" parent="1" vertex="1">
          <mxGeometry x="2510.5" y="1919.9699999999998" width="80" height="80.07" as="geometry" />
        </mxCell>
        <mxCell id="z2_gmYMCOCfwrX77VKX7-245" value="1" style="text;html=1;align=center;verticalAlign=middle;whiteSpace=wrap;rounded=0;" parent="1" vertex="1">
          <mxGeometry x="2460.5" y="1960" width="55" height="30" as="geometry" />
        </mxCell>
        <mxCell id="z2_gmYMCOCfwrX77VKX7-246" style="edgeStyle=orthogonalEdgeStyle;rounded=0;orthogonalLoop=1;jettySize=auto;html=1;entryX=0.145;entryY=0.855;entryDx=0;entryDy=0;entryPerimeter=0;" parent="1" target="z2_gmYMCOCfwrX77VKX7-244" edge="1">
          <mxGeometry relative="1" as="geometry">
            <mxPoint x="2460" y="1990" as="sourcePoint" />
            <Array as="points">
              <mxPoint x="2460" y="1988" />
              <mxPoint x="2465" y="1988" />
            </Array>
            <mxPoint x="2516.55" y="1978" as="targetPoint" />
          </mxGeometry>
        </mxCell>
        <mxCell id="z2_gmYMCOCfwrX77VKX7-247" style="edgeStyle=orthogonalEdgeStyle;rounded=0;orthogonalLoop=1;jettySize=auto;html=1;exitX=0;exitY=0.75;exitDx=0;exitDy=0;entryX=0;entryY=0.75;entryDx=0;entryDy=0;" parent="1" target="z2_gmYMCOCfwrX77VKX7-250" edge="1">
          <mxGeometry relative="1" as="geometry">
            <mxPoint x="2800" y="1902.5833333333335" as="sourcePoint" />
          </mxGeometry>
        </mxCell>
        <mxCell id="z2_gmYMCOCfwrX77VKX7-248" style="edgeStyle=orthogonalEdgeStyle;rounded=0;orthogonalLoop=1;jettySize=auto;html=1;exitX=0;exitY=0.25;exitDx=0;exitDy=0;entryX=0;entryY=0.25;entryDx=0;entryDy=0;jumpStyle=arc;" parent="1" target="z2_gmYMCOCfwrX77VKX7-250" edge="1">
          <mxGeometry relative="1" as="geometry">
            <mxPoint x="2810" y="1780" as="sourcePoint" />
          </mxGeometry>
        </mxCell>
        <mxCell id="z2_gmYMCOCfwrX77VKX7-249" style="edgeStyle=orthogonalEdgeStyle;rounded=0;orthogonalLoop=1;jettySize=auto;html=1;exitX=1;exitY=0.5;exitDx=0;exitDy=0;entryX=0.25;entryY=1;entryDx=0;entryDy=0;" parent="1" source="z2_gmYMCOCfwrX77VKX7-250" target="z2_gmYMCOCfwrX77VKX7-235" edge="1">
          <mxGeometry relative="1" as="geometry" />
        </mxCell>
        <mxCell id="z2_gmYMCOCfwrX77VKX7-250" value="LUT (&amp;lt;)" style="rounded=1;whiteSpace=wrap;html=1;absoluteArcSize=1;arcSize=14;strokeWidth=2;" parent="1" vertex="1">
          <mxGeometry x="2850.5" y="1880" width="100" height="30" as="geometry" />
        </mxCell>
        <mxCell id="z2_gmYMCOCfwrX77VKX7-251" value="0" style="text;html=1;align=center;verticalAlign=middle;whiteSpace=wrap;rounded=0;" parent="1" vertex="1">
          <mxGeometry x="2790.5" y="1900" width="60" height="30" as="geometry" />
        </mxCell>
        <mxCell id="z2_gmYMCOCfwrX77VKX7-252" style="edgeStyle=orthogonalEdgeStyle;rounded=0;orthogonalLoop=1;jettySize=auto;html=1;exitX=0;exitY=0.75;exitDx=0;exitDy=0;entryX=0;entryY=0.75;entryDx=0;entryDy=0;" parent="1" target="z2_gmYMCOCfwrX77VKX7-255" edge="1">
          <mxGeometry relative="1" as="geometry">
            <mxPoint x="2800" y="1972.5833333333335" as="sourcePoint" />
          </mxGeometry>
        </mxCell>
        <mxCell id="z2_gmYMCOCfwrX77VKX7-253" style="edgeStyle=orthogonalEdgeStyle;rounded=0;orthogonalLoop=1;jettySize=auto;html=1;exitX=0;exitY=0.25;exitDx=0;exitDy=0;entryX=0;entryY=0.25;entryDx=0;entryDy=0;" parent="1" target="z2_gmYMCOCfwrX77VKX7-255" edge="1">
          <mxGeometry relative="1" as="geometry">
            <mxPoint x="2770" y="1957.578947368421" as="sourcePoint" />
          </mxGeometry>
        </mxCell>
        <mxCell id="z2_gmYMCOCfwrX77VKX7-254" style="edgeStyle=orthogonalEdgeStyle;rounded=0;orthogonalLoop=1;jettySize=auto;html=1;exitX=1;exitY=0.5;exitDx=0;exitDy=0;entryX=0.5;entryY=1;entryDx=0;entryDy=0;" parent="1" source="z2_gmYMCOCfwrX77VKX7-255" target="z2_gmYMCOCfwrX77VKX7-235" edge="1">
          <mxGeometry relative="1" as="geometry">
            <Array as="points">
              <mxPoint x="2980" y="1965" />
              <mxPoint x="2980" y="1820" />
            </Array>
          </mxGeometry>
        </mxCell>
        <mxCell id="z2_gmYMCOCfwrX77VKX7-255" value="LUT (&amp;lt;)" style="rounded=1;whiteSpace=wrap;html=1;absoluteArcSize=1;arcSize=14;strokeWidth=2;" parent="1" vertex="1">
          <mxGeometry x="2850.5" y="1950" width="100" height="30" as="geometry" />
        </mxCell>
        <mxCell id="z2_gmYMCOCfwrX77VKX7-256" value="0" style="text;html=1;align=center;verticalAlign=middle;whiteSpace=wrap;rounded=0;" parent="1" vertex="1">
          <mxGeometry x="2790.5" y="1970" width="60" height="30" as="geometry" />
        </mxCell>
        <mxCell id="z2_gmYMCOCfwrX77VKX7-257" value="" style="edgeStyle=orthogonalEdgeStyle;rounded=0;orthogonalLoop=1;jettySize=auto;html=1;" parent="1" edge="1">
          <mxGeometry relative="1" as="geometry">
            <mxPoint x="2486.89" y="1800" as="sourcePoint" />
            <Array as="points">
              <mxPoint x="2486.89" y="1780" />
              <mxPoint x="2486.89" y="1780" />
            </Array>
            <mxPoint x="2487" y="1820" as="targetPoint" />
          </mxGeometry>
        </mxCell>
        <mxCell id="z2_gmYMCOCfwrX77VKX7-258" value="Reset" style="text;html=1;align=center;verticalAlign=middle;resizable=0;points=[];autosize=1;strokeColor=none;fillColor=none;rotation=90;" parent="1" vertex="1">
          <mxGeometry x="2480.89" y="1780" width="50" height="30" as="geometry" />
        </mxCell>
        <mxCell id="z2_gmYMCOCfwrX77VKX7-259" value="1" style="text;html=1;align=center;verticalAlign=middle;whiteSpace=wrap;rounded=0;" parent="1" vertex="1">
          <mxGeometry x="2706" y="1500" width="60" height="30" as="geometry" />
        </mxCell>
        <mxCell id="z2_gmYMCOCfwrX77VKX7-260" value="B_In_Sel" style="text;html=1;align=center;verticalAlign=middle;whiteSpace=wrap;rounded=0;" parent="1" vertex="1">
          <mxGeometry x="2761" y="1280" width="60" height="30" as="geometry" />
        </mxCell>
        <mxCell id="z2_gmYMCOCfwrX77VKX7-261" style="edgeStyle=orthogonalEdgeStyle;rounded=0;orthogonalLoop=1;jettySize=auto;html=1;entryX=0;entryY=0.75;entryDx=0;entryDy=0;" parent="1" target="z2_gmYMCOCfwrX77VKX7-263" edge="1">
          <mxGeometry relative="1" as="geometry">
            <mxPoint x="530" y="2360" as="sourcePoint" />
            <Array as="points">
              <mxPoint x="590" y="2360" />
              <mxPoint x="590" y="2365" />
            </Array>
          </mxGeometry>
        </mxCell>
        <mxCell id="z2_gmYMCOCfwrX77VKX7-262" style="edgeStyle=orthogonalEdgeStyle;rounded=0;orthogonalLoop=1;jettySize=auto;html=1;exitX=1;exitY=0.75;exitDx=0;exitDy=0;entryX=0;entryY=0.75;entryDx=0;entryDy=0;" parent="1" source="z2_gmYMCOCfwrX77VKX7-263" target="z2_gmYMCOCfwrX77VKX7-265" edge="1">
          <mxGeometry relative="1" as="geometry" />
        </mxCell>
        <mxCell id="z2_gmYMCOCfwrX77VKX7-263" value="Blakely Mult" style="rounded=0;whiteSpace=wrap;html=1;fontSize=14;align=center;labelPosition=center;verticalLabelPosition=top;verticalAlign=bottom;" parent="1" vertex="1">
          <mxGeometry x="860" y="2320" width="120" height="60" as="geometry" />
        </mxCell>
        <mxCell id="z2_gmYMCOCfwrX77VKX7-264" style="edgeStyle=orthogonalEdgeStyle;rounded=0;orthogonalLoop=1;jettySize=auto;html=1;exitX=0;exitY=0.25;exitDx=0;exitDy=0;entryX=0;entryY=0.25;entryDx=0;entryDy=0;" parent="1" target="z2_gmYMCOCfwrX77VKX7-265" edge="1">
          <mxGeometry relative="1" as="geometry">
            <mxPoint x="1010" y="2210" as="sourcePoint" />
            <Array as="points">
              <mxPoint x="1010" y="2275" />
            </Array>
          </mxGeometry>
        </mxCell>
        <mxCell id="z2_gmYMCOCfwrX77VKX7-265" value="Blakely Mult" style="rounded=0;whiteSpace=wrap;html=1;fontSize=14;align=center;labelPosition=center;verticalLabelPosition=top;verticalAlign=bottom;" parent="1" vertex="1">
          <mxGeometry x="1050" y="2260" width="120" height="60" as="geometry" />
        </mxCell>
        <mxCell id="z2_gmYMCOCfwrX77VKX7-266" value="&lt;span style=&quot;font-size: 11px; text-wrap: nowrap; background-color: rgb(255, 255, 255);&quot;&gt;Input&lt;/span&gt;&lt;span style=&quot;text-wrap: nowrap; background-color: rgb(255, 255, 255);&quot;&gt;&lt;font size=&quot;1&quot;&gt;&lt;sup&gt;3&lt;/sup&gt;&lt;/font&gt;&lt;/span&gt;" style="text;html=1;align=center;verticalAlign=middle;whiteSpace=wrap;rounded=0;" parent="1" vertex="1">
          <mxGeometry x="970" y="2360" width="60" height="30" as="geometry" />
        </mxCell>
        <mxCell id="z2_gmYMCOCfwrX77VKX7-267" value="Output&lt;sup&gt;7&lt;/sup&gt;" style="edgeStyle=orthogonalEdgeStyle;rounded=0;orthogonalLoop=1;jettySize=auto;html=1;labelPosition=center;verticalLabelPosition=top;align=center;verticalAlign=bottom;fontSize=23;" parent="1" edge="1">
          <mxGeometry relative="1" as="geometry">
            <mxPoint x="1340" y="2289.66" as="targetPoint" />
            <mxPoint x="1170" y="2290" as="sourcePoint" />
          </mxGeometry>
        </mxCell>
        <mxCell id="z2_gmYMCOCfwrX77VKX7-268" value="" style="endArrow=classic;html=1;rounded=0;" parent="1" edge="1">
          <mxGeometry width="50" height="50" relative="1" as="geometry">
            <mxPoint x="380" y="2360" as="sourcePoint" />
            <mxPoint x="530" y="2360" as="targetPoint" />
          </mxGeometry>
        </mxCell>
        <mxCell id="z2_gmYMCOCfwrX77VKX7-269" value="M[F[i]]" style="text;html=1;align=center;verticalAlign=middle;whiteSpace=wrap;rounded=0;" parent="1" vertex="1">
          <mxGeometry x="420" y="2330" width="60" height="30" as="geometry" />
        </mxCell>
      </root>
    </mxGraphModel>
  </diagram>
</mxfile>
